<?xml version="1.0" encoding="utf-8"?>
<!-- Generator: Adobe Illustrator 26.0.2, SVG Export Plug-In . SVG Version: 6.00 Build 0)  -->
<svg version="1.1" xmlns="http://www.w3.org/2000/svg" xmlns:xlink="http://www.w3.org/1999/xlink" x="0px" y="0px"
	 viewBox="0 0 1800 988" style="enable-background:new 0 0 1800 988;" xml:space="preserve">
<style type="text/css">
	.st0{clip-path:url(#SVGID_00000159449590788313916490000006405739792877922688_);}
	.st1{fill-rule:evenodd;clip-rule:evenodd;fill:#CCBCF7;}
	.st2{opacity:0.44;}
	.st3{fill:#FFFFFF;}
	.st4{fill:#1D1D1B;}
	.st5{fill-rule:evenodd;clip-rule:evenodd;fill:#FFFFFF;}
	.st6{opacity:0.27;}
</style>
<g id="Layer_1">
	<g>
		<defs>
			<rect id="SVGID_1_" width="1800" height="988"/>
		</defs>
		<clipPath id="SVGID_00000007426425193650189070000012082874880836735116_">
			<use xlink:href="#SVGID_1_"  style="overflow:visible;"/>
		</clipPath>
		<g style="clip-path:url(#SVGID_00000007426425193650189070000012082874880836735116_);">
			<path class="st1" d="M1888,987.5c0-545.1-441.9-987-987-987c-545.1,0-987,441.9-987,987"/>
		</g>
	</g>
</g>
<g id="Layer_2">
	<g class="st2">
		<path class="st3" d="M1582.1,723.4c-8.1-5.5-16.4-6.5-16.7-6.5c0,0,0,0,0,0c-6.9-4.5-13.6-5.1-15.5-5.2c0,0-0.1,0-0.1,0
			c0,0,0,0,0,0c0,0-0.1,0-0.1,0c-0.1,0-0.1,0-0.1,0c0,0,0,0,0,0c0,0-0.1,0-0.1,0c-1.8,0.1-8.6,0.7-15.5,5.2c0,0,0,0,0,0
			c-0.3,0-8.6,1-16.7,6.5c-7.6,5.2-16.5,15.4-15.9,34.6c0.5,15.5,11,30.7,30.5,43.8c0.6,0.4,1.2,0.6,1.9,0.6c0.4,0,0.7-0.1,1.1-0.2
			c5-1.7,10.3-2.6,15.6-2.5c4.9,0.1,9.8,0.9,14.5,2.5c0.9,0.3,1.9,0.2,2.7-0.2c3.3-1.8,11.8-7.2,20.5-18.3
			c6.5-8.2,9.9-16.9,10.2-25.6C1598.6,738.8,1589.6,728.6,1582.1,723.4z"/>
		<g>
			<polygon class="st3" points="826.9,682.5 815.6,699 996.7,699 987.8,682.5 			"/>
			<path class="st4" d="M996.7,702.3H815.6c-1.3,0-2.4-0.7-3-1.8c-0.6-1.1-0.5-2.5,0.2-3.5l11.3-16.5c0.6-0.9,1.7-1.5,2.8-1.5h161
				c1.2,0,2.4,0.7,3,1.8l8.8,16.5c0.6,1.1,0.5,2.3-0.1,3.3C999,701.7,997.9,702.3,996.7,702.3z M822,695.6h169l-5.2-9.7H828.7
				L822,695.6z"/>
		</g>
		<rect x="0.3" y="894.1" class="st3" width="1801" height="88.9"/>
		<g>
			<path class="st3" d="M748.6,970.2h312.9V722.9c-22.3-7.6-76.7-23.9-152.2-24.4c-80.5-0.6-138.5,16.9-160.7,24.4
				C748.6,805.4,748.6,887.8,748.6,970.2z"/>
			<path class="st4" d="M1061.5,974.6H748.6c-1.8,0-3.2-1.5-3.2-3.2V723.1c0-1.4,0.9-2.6,2.2-3.1c22.5-7.7,80.3-11.6,162.8-10.9
				c86.3,0.7,131.8,3.9,152.2,10.9c1.3,0.4,2.2,1.7,2.2,3.1v248.3C1064.7,973.2,1063.3,974.6,1061.5,974.6z M751.8,968.1h306.4
				V725.4c-20.8-6.3-65.5-9.2-148-9.9c-78-0.6-135.3,3-158.4,9.9V968.1z"/>
		</g>
		<path class="st4" d="M1559.2,805.4c-3-1.1-6.1-1.7-9.3-1.7c-3.4,0-6.8,0.5-10,1.7c-1.3,0.5-2.2,1.7-2.2,3.1v10.3
			c0,5.5,4.5,10,10,10h3.7c5.5,0,10-4.5,10-10v-10.3C1561.4,807.1,1560.5,805.9,1559.2,805.4z M1554.8,818.8c0,1.9-1.5,3.4-3.4,3.4
			h-3.7c-1.9,0-3.4-1.5-3.4-3.4v-7.9c1.8-0.4,3.6-0.7,5.5-0.6c1.7,0,3.3,0.2,4.9,0.6V818.8z"/>
		<path class="st4" d="M1244.4,647c-1.9,0-3.7-0.4-5.4-1.3c-3.8,1.7-8.4,1.7-12.2,0c-1.8,0.9-3.7,1.3-5.7,1.3
			c-7.3,0-13.2-5.9-13.2-13.2c0-7.3,5.9-13.2,13.2-13.2c0.5,0,1,0,1.5,0.1c2.8-2.6,6.4-4,10.3-4c5,0,9.6,2.4,12.4,6.5
			c6.1,0.5,10.9,5.6,10.9,11.9C1256.3,641.7,1251,647,1244.4,647z M1239.2,638.6c0.7,0,1.4,0.2,2,0.7c0.9,0.7,2,1.1,3.2,1.1
			c2.9,0,5.3-2.4,5.3-5.3c0-2.9-2.4-5.3-5.3-5.3c-0.2,0-0.4,0-0.5,0c-1.4,0.1-2.7-0.6-3.3-1.8c-1.5-2.9-4.4-4.7-7.6-4.7
			c-2.6,0-5,1.1-6.6,3.1c-0.8,1-2.2,1.4-3.5,1.1c-0.6-0.2-1.2-0.2-1.8-0.2c-3.6,0-6.5,2.9-6.5,6.5c0,3.6,2.9,6.5,6.5,6.5
			c1.3,0,2.6-0.4,3.7-1.2c1.1-0.8,2.5-0.8,3.6-0.1c1.3,0.8,2.9,1.3,4.5,1.3c1.6,0,3.1-0.4,4.5-1.3
			C1238,638.8,1238.6,638.6,1239.2,638.6z"/>
		<path class="st4" d="M988.3,663.8c-2,0-3.9-0.4-5.7-1.3c-3.8,1.7-8.4,1.7-12.2,0c-1.7,0.8-3.5,1.3-5.4,1.3
			c-6.6,0-11.9-5.3-11.9-11.9c0-6.2,4.8-11.4,10.9-11.9c2.8-4.1,7.4-6.5,12.4-6.5c3.9,0,7.5,1.5,10.3,4c0.5-0.1,1-0.1,1.5-0.1
			c7.3,0,13.2,5.9,13.2,13.2C1001.4,657.9,995.5,663.8,988.3,663.8z M982.6,655.4c0.7,0,1.3,0.2,1.9,0.6c1.1,0.8,2.4,1.2,3.7,1.2
			c3.6,0,6.5-2.9,6.5-6.5c0-3.6-2.9-6.5-6.5-6.5c-0.6,0-1.2,0.1-1.8,0.2c-1.3,0.4-2.6-0.1-3.5-1.1c-1.6-2-4-3.1-6.6-3.1
			c-3.2,0-6.1,1.8-7.6,4.7c-0.6,1.2-1.9,1.9-3.3,1.8c-0.2,0-0.4,0-0.5,0c-2.9,0-5.3,2.4-5.3,5.3c0,2.9,2.4,5.3,5.3,5.3
			c1.2,0,2.3-0.4,3.2-1.1c1.1-0.8,2.6-0.9,3.8-0.2c1.3,0.8,2.9,1.3,4.5,1.3c1.6,0,3.1-0.4,4.5-1.3
			C981.4,655.6,982,655.4,982.6,655.4z"/>
		<g>
			<g>
				<path class="st3" d="M761.4,768.2h284.9H761.4z"/>
				<path class="st4" d="M1046.3,770.6H761.4c-1.3,0-2.4-1.1-2.4-2.4c0-1.3,1.1-2.4,2.4-2.4h284.9c1.3,0,2.4,1.1,2.4,2.4
					C1048.7,769.5,1047.6,770.6,1046.3,770.6z"/>
			</g>
			<g>
				<path class="st3" d="M761.4,805.4h284.9H761.4z"/>
				<path class="st4" d="M1046.3,807.8H761.4c-1.3,0-2.4-1.1-2.4-2.4c0-1.3,1.1-2.4,2.4-2.4h284.9c1.3,0,2.4,1.1,2.4,2.4
					C1048.7,806.7,1047.6,807.8,1046.3,807.8z"/>
			</g>
			<g>
				<path class="st3" d="M761.4,838.5h284.9H761.4z"/>
				<path class="st4" d="M1046.3,841H761.4c-1.3,0-2.4-1.1-2.4-2.4c0-1.3,1.1-2.4,2.4-2.4h284.9c1.3,0,2.4,1.1,2.4,2.4
					C1048.7,839.9,1047.6,841,1046.3,841z"/>
			</g>
			<g>
				<path class="st3" d="M761.4,874.4h284.9H761.4z"/>
				<path class="st4" d="M1046.3,876.8H761.4c-1.3,0-2.4-1.1-2.4-2.4c0-1.3,1.1-2.4,2.4-2.4h284.9c1.3,0,2.4,1.1,2.4,2.4
					C1048.7,875.7,1047.6,876.8,1046.3,876.8z"/>
			</g>
		</g>
		<g>
			<path class="st4" d="M1544,974c-1.8,0-3.3-1.5-3.3-3.3v-64.4c0-11.3,4.4-22,12.4-30c8-8,18.7-12.4,30-12.4c1.8,0,3.3,1.5,3.3,3.3
				c0,1.8-1.5,3.3-3.3,3.3c-9.6,0-18.5,3.7-25.3,10.5c-6.8,6.8-10.5,15.7-10.5,25.3v64.4C1547.3,972.5,1545.9,974,1544,974z"/>
		</g>
		<g>
			<path class="st4" d="M1534.7,974c-1.8,0-3.3-1.5-3.3-3.3v-64.4c0-9.6-3.7-18.5-10.5-25.3c-6.8-6.8-15.7-10.5-25.3-10.5
				c-1.8,0-3.3-1.5-3.3-3.3c0-1.8,1.5-3.3,3.3-3.3c11.3,0,22,4.4,30,12.4c8,8,12.4,18.7,12.4,30v64.4
				C1538,972.5,1536.5,974,1534.7,974z"/>
		</g>
		<circle class="st4" cx="1562.2" cy="888.5" r="3.6"/>
		<path class="st3" d="M1509.1,885c-0.4,0-0.8-0.1-1.2-0.2c-6.6-2.7-13.1-3.7-19.2-3c-1.8,0.2-3.5-1.1-3.7-2.9
			c-0.2-1.8,1.1-3.5,2.9-3.7c7.2-0.8,14.8,0.4,22.4,3.5c1.7,0.7,2.5,2.6,1.8,4.3C1511.7,884.2,1510.4,885,1509.1,885z M1571.9,884.8
			c6.6-2.7,13.1-3.7,19.2-3c1.8,0.2,3.5-1.1,3.7-2.9c0.2-1.8-1.1-3.5-2.9-3.7c-7.2-0.8-14.8,0.4-22.4,3.5c-1.7,0.7-2.5,2.6-1.8,4.3
			c0.5,1.3,1.8,2.1,3.1,2.1C1571.1,885,1571.5,885,1571.9,884.8z M1484.7,863.5c-2,0-3.6,1.6-3.6,3.6c0,2,1.6,3.6,3.6,3.6
			c2,0,3.6-1.6,3.6-3.6C1488.3,865.2,1486.7,863.5,1484.7,863.5z"/>
		<g>
			<g>
				<rect x="908.1" y="897.6" class="st3" width="27.5" height="14.7"/>
				<path class="st4" d="M935.6,915.5h-27.4c-1.8,0-3.3-1.5-3.3-3.3v-14.5c0-1.8,1.5-3.3,3.3-3.3h27.4c1.8,0,3.3,1.5,3.3,3.3v14.5
					C938.9,914.1,937.4,915.5,935.6,915.5z M911.4,909.1h21.1v-8.2h-21.1V909.1z"/>
			</g>
			<g>
				<rect x="879.7" y="897.6" class="st3" width="27.5" height="14.7"/>
				<path class="st4" d="M907.2,915.5h-27.4c-1.8,0-3.3-1.5-3.3-3.3v-14.5c0-1.8,1.5-3.3,3.3-3.3h27.4c1.8,0,3.3,1.5,3.3,3.3v14.5
					C910.5,914.1,909,915.5,907.2,915.5z M882.9,909.1H904v-8.2h-21.1V909.1z"/>
			</g>
			<g>
				<rect x="851.3" y="897.6" class="st3" width="27.5" height="14.7"/>
				<path class="st4" d="M878.7,915.5h-27.4c-1.8,0-3.3-1.5-3.3-3.3v-14.5c0-1.8,1.5-3.3,3.3-3.3h27.4c1.8,0,3.3,1.5,3.3,3.3v14.5
					C882,914.1,880.6,915.5,878.7,915.5z M854.5,909.1h21.1v-8.2h-21.1V909.1z"/>
			</g>
			<g>
				<rect x="822.8" y="897.6" class="st3" width="27.5" height="14.7"/>
				<path class="st4" d="M850.3,915.5h-27.4c-1.8,0-3.3-1.5-3.3-3.3v-14.5c0-1.8,1.5-3.3,3.3-3.3h27.4c1.8,0,3.3,1.5,3.3,3.3v14.5
					C853.6,914.1,852.1,915.5,850.3,915.5z M826.1,909.1h21.1v-8.2h-21.1V909.1z"/>
			</g>
			<g>
				<rect x="795.7" y="897.6" class="st3" width="27.5" height="14.7"/>
				<path class="st4" d="M823.2,915.5h-27.4c-1.8,0-3.3-1.5-3.3-3.3v-14.5c0-1.8,1.5-3.3,3.3-3.3h27.4c1.8,0,3.3,1.5,3.3,3.3v14.5
					C826.5,914.1,825,915.5,823.2,915.5z M799,909.1H820v-8.2H799V909.1z"/>
			</g>
		</g>
		<g>
			<path class="st4" d="M1626.3,941.5h-25.4c-1.8,0-3.3-1.5-3.3-3.3c0-1.8,1.5-3.3,3.3-3.3h25.4c1.8,0,3.3,1.5,3.3,3.3
				C1629.6,940.1,1628.1,941.5,1626.3,941.5z"/>
		</g>
		<g>
			<path class="st4" d="M1402.5,954.9h-15.2c-1.8,0-3.3-1.5-3.3-3.3s1.5-3.3,3.3-3.3h15.2c1.8,0,3.3,1.5,3.3,3.3
				S1404.3,954.9,1402.5,954.9z"/>
		</g>
		<g>
			<path class="st3" d="M462.1,971.2h284.7V593.9c-20.3-11.6-69.8-36.4-138.5-37.3c-73.3-1-126.1,25.8-146.2,37.3
				C462.1,719.7,462.1,845.4,462.1,971.2z"/>
			<path class="st4" d="M746.9,974.4H462.1c-1.8,0-3.2-1.5-3.2-3.2V593.9c0-1.2,0.6-2.2,1.6-2.8c25.4-14.5,78.3-38.6,147.9-37.7
				c62.6,0.8,110.8,21,140.1,37.7c1,0.6,1.6,1.7,1.6,2.8v377.3C750.1,973,748.7,974.4,746.9,974.4z M465.4,967.9h278.3V595.8
				c-28.8-16.2-75.2-35.1-135.3-35.9c-66.6-0.9-117.6,21.7-142.9,35.9V967.9z"/>
		</g>
		<g>
			<polygon class="st3" points="746.9,595.6 462.1,595.6 478.6,585.2 538.7,563.4 594.9,556.1 640.4,558 689.4,569.2 733.1,586.5 
							"/>
			<path class="st4" d="M746.9,598.9H462.1c-1.4,0-2.7-1-3.1-2.3c-0.4-1.4,0.2-2.9,1.4-3.6l16.5-10.4c0.2-0.1,0.4-0.2,0.6-0.3
				l60.1-21.9c0.2-0.1,0.5-0.1,0.7-0.2l56.2-7.3c0.2,0,0.4,0,0.6,0l45.5,2c0.2,0,0.4,0,0.6,0.1l49,11.2c0.2,0,0.3,0.1,0.5,0.1
				l43.7,17.3c0.2,0.1,0.4,0.2,0.6,0.3l13.8,9.1c1.2,0.8,1.7,2.3,1.3,3.6C749.6,597.9,748.3,598.9,746.9,598.9z M473.4,592.4h262.7
				l-4.5-3l-43.2-17.1l-48.4-11l-45-1.9l-55.6,7.2l-59.4,21.6L473.4,592.4z"/>
		</g>
		<path class="st4" d="M746.9,974.4H462.1c-1.8,0-3.2-1.5-3.2-3.2V593.9c0-1.2,0.6-2.2,1.6-2.8c25.4-14.5,78.3-38.6,147.9-37.7
			c62.6,0.8,110.8,21,140.1,37.7c1,0.6,1.6,1.7,1.6,2.8v377.3C750.1,973,748.7,974.4,746.9,974.4z M465.4,967.9h278.3V595.8
			c-28.8-16.2-75.2-35.1-135.3-35.9c-66.6-0.9-117.6,21.7-142.9,35.9V967.9z"/>
		<path class="st3" d="M235.6,962.5h1.4c0,0,6.1,0.7,13.6-3.5c7.4-4.1,13.1-22.4,13.1-22.4l-0.4-21.9L240,898.5l-28.4,7l-0.6,6.7
			v21.3c0,0-0.7,4.3-2.4,8.2c3.8,9,3.8,9,3.8,9l12.4,7.1L235.6,962.5z"/>
		<path class="st3" d="M191.4,954.2l7.7-9.7l4.3-50.4l-0.5-41.7L189,831.6l-20.7-4.2l-19.5,8.9l-7,15.6l-3.6,45l1.7,43l12.6,16.9
			l21.6,6.6c0,0,9-1.1,15.7-5.6c-1.3-3-1.3-3-1.3-3L191.4,954.2z"/>
		<path class="st3" d="M132.2,939.2c0,0-2.1-8.1-2.1-15.1c0-7,0.5-39,0.5-39l-8.4-11.1c0,0-17.8-2.8-18.4-2.8
			c-0.6,0-17.3,5.9-17.3,5.9l-10.2,14.5l-3.1,36.6L82,950l27.3,13.4c0,0,9.8-1.2,15.3-5.4c5.4-4.2,6.1-10.6,6.1-10.6L132.2,939.2z"
			/>
		<path class="st3" d="M1335.3,921l9.9-5v-9.8l-19.4-17.7l9.7-2.8l2.4-5.4l-23.5-22.7l-22.7,22.2l1.3,7.1l8.4,0.9l-10.2,15.8
			l-0.2,15.8V932c0,0-0.2,12-5.8,17.2c-5.6,5.2,14.4,4.7,14.4,4.7l11.1-4.1h34.4h5.2l1.4-6.8L1335.3,921z"/>
		<path class="st3" d="M1284.2,885.5l-3.3,51.9l-16.2,23.2c0,0-8.1,3.2-17.1,2.6c-9-0.6-16.7-10.7-16.7-10.7l-3.5-5.9
			c0,0-7-15.5-7.5-21.3c-0.5-5.8,0-26.6,0-26.6v-51.8l22.1-19.4l22.5,4l16.4,12L1284.2,885.5z"/>
		<polygon class="st3" points="1179.2,857.5 1204.3,881 1201.2,885.7 1191.8,887.3 1210.8,912.1 1209.2,917.7 1196.9,919.6 
			1214.2,939.5 1214.2,947.7 1204.1,956.1 1158.5,956.1 1147.1,953.9 1140.2,944 1160.2,921.2 1148.4,917.7 1146.6,910.4 
			1167.4,888.1 1156.8,885.9 1155.3,877.8 		"/>
		<g>
			<rect x="290.6" y="797.7" class="st3" width="92.3" height="174.7"/>
			<path class="st4" d="M382.9,975.8h-92.2c-1.9,0-3.5-1.6-3.5-3.5V797.8c0-1.9,1.6-3.5,3.5-3.5h92.2c1.9,0,3.5,1.6,3.5,3.5v174.5
				C386.4,974.2,384.8,975.8,382.9,975.8z M294,969h85.5V801.1H294V969z"/>
		</g>
		<g>
			<g>
				
					<rect x="705.5" y="613.3" transform="matrix(-1 -1.224647e-16 1.224647e-16 -1 1424.8029 1254.9211)" class="st3" width="13.8" height="28.3"/>
				
					<rect x="670.4" y="613.3" transform="matrix(-1 -1.224647e-16 1.224647e-16 -1 1354.5441 1254.9211)" class="st3" width="13.8" height="28.3"/>
				
					<rect x="635.2" y="613.3" transform="matrix(-1 -1.224647e-16 1.224647e-16 -1 1284.2854 1254.9211)" class="st3" width="13.8" height="28.3"/>
				
					<rect x="600.1" y="613.3" transform="matrix(-1 -1.224647e-16 1.224647e-16 -1 1214.0271 1254.9211)" class="st3" width="13.8" height="28.3"/>
				
					<rect x="565" y="613.3" transform="matrix(-1 -1.224647e-16 1.224647e-16 -1 1143.7683 1254.9211)" class="st3" width="13.8" height="28.3"/>
				
					<rect x="529.8" y="613.3" transform="matrix(-1 -1.224647e-16 1.224647e-16 -1 1073.5095 1254.9211)" class="st3" width="13.8" height="28.3"/>
				
					<rect x="494.7" y="613.3" transform="matrix(-1 -1.224647e-16 1.224647e-16 -1 1003.2508 1254.9211)" class="st3" width="13.8" height="28.3"/>
			</g>
			<g>
				
					<rect x="705.5" y="670.8" transform="matrix(-1 -1.224647e-16 1.224647e-16 -1 1424.8029 1369.9506)" class="st3" width="13.8" height="28.3"/>
				
					<rect x="670.4" y="670.8" transform="matrix(-1 -1.224647e-16 1.224647e-16 -1 1354.5441 1369.9506)" class="st3" width="13.8" height="28.3"/>
				
					<rect x="635.2" y="670.8" transform="matrix(-1 -1.224647e-16 1.224647e-16 -1 1284.2854 1369.9506)" class="st3" width="13.8" height="28.3"/>
				
					<rect x="600.1" y="670.8" transform="matrix(-1 -1.224647e-16 1.224647e-16 -1 1214.0271 1369.9506)" class="st3" width="13.8" height="28.3"/>
				
					<rect x="565" y="670.8" transform="matrix(-1 -1.224647e-16 1.224647e-16 -1 1143.7683 1369.9506)" class="st3" width="13.8" height="28.3"/>
				
					<rect x="529.8" y="670.8" transform="matrix(-1 -1.224647e-16 1.224647e-16 -1 1073.5095 1369.9506)" class="st3" width="13.8" height="28.3"/>
				
					<rect x="494.7" y="670.8" transform="matrix(-1 -1.224647e-16 1.224647e-16 -1 1003.2508 1369.9506)" class="st3" width="13.8" height="28.3"/>
			</g>
			<g>
				
					<rect x="705.5" y="728.4" transform="matrix(-1 -1.224647e-16 1.224647e-16 -1 1424.8029 1484.98)" class="st3" width="13.8" height="28.3"/>
				
					<rect x="670.4" y="728.4" transform="matrix(-1 -1.224647e-16 1.224647e-16 -1 1354.5441 1484.98)" class="st3" width="13.8" height="28.3"/>
				
					<rect x="635.2" y="728.4" transform="matrix(-1 -1.224647e-16 1.224647e-16 -1 1284.2854 1484.98)" class="st3" width="13.8" height="28.3"/>
				
					<rect x="600.1" y="728.4" transform="matrix(-1 -1.224647e-16 1.224647e-16 -1 1214.0271 1484.98)" class="st3" width="13.8" height="28.3"/>
				
					<rect x="565" y="728.4" transform="matrix(-1 -1.224647e-16 1.224647e-16 -1 1143.7683 1484.98)" class="st3" width="13.8" height="28.3"/>
				
					<rect x="529.8" y="728.4" transform="matrix(-1 -1.224647e-16 1.224647e-16 -1 1073.5095 1484.98)" class="st3" width="13.8" height="28.3"/>
				
					<rect x="494.7" y="728.4" transform="matrix(-1 -1.224647e-16 1.224647e-16 -1 1003.2508 1484.98)" class="st3" width="13.8" height="28.3"/>
			</g>
			<g>
				
					<rect x="705.5" y="785.9" transform="matrix(-1 -1.224647e-16 1.224647e-16 -1 1424.8029 1600.0095)" class="st3" width="13.8" height="28.3"/>
				
					<rect x="670.4" y="785.9" transform="matrix(-1 -1.224647e-16 1.224647e-16 -1 1354.5441 1600.0095)" class="st3" width="13.8" height="28.3"/>
				
					<rect x="635.2" y="785.9" transform="matrix(-1 -1.224647e-16 1.224647e-16 -1 1284.2854 1600.0095)" class="st3" width="13.8" height="28.3"/>
				
					<rect x="600.1" y="785.9" transform="matrix(-1 -1.224647e-16 1.224647e-16 -1 1214.0271 1600.0095)" class="st3" width="13.8" height="28.3"/>
				
					<rect x="565" y="785.9" transform="matrix(-1 -1.224647e-16 1.224647e-16 -1 1143.7683 1600.0095)" class="st3" width="13.8" height="28.3"/>
				
					<rect x="529.8" y="785.9" transform="matrix(-1 -1.224647e-16 1.224647e-16 -1 1073.5095 1600.0095)" class="st3" width="13.8" height="28.3"/>
				
					<rect x="494.7" y="785.9" transform="matrix(-1 -1.224647e-16 1.224647e-16 -1 1003.2508 1600.0095)" class="st3" width="13.8" height="28.3"/>
			</g>
			<g>
				
					<rect x="705.5" y="843.3" transform="matrix(-1 -1.224647e-16 1.224647e-16 -1 1424.8029 1714.821)" class="st3" width="13.8" height="28.3"/>
				
					<rect x="670.4" y="843.3" transform="matrix(-1 -1.224647e-16 1.224647e-16 -1 1354.5441 1714.821)" class="st3" width="13.8" height="28.3"/>
				
					<rect x="635.2" y="843.3" transform="matrix(-1 -1.224647e-16 1.224647e-16 -1 1284.2854 1714.821)" class="st3" width="13.8" height="28.3"/>
				
					<rect x="600.1" y="843.3" transform="matrix(-1 -1.224647e-16 1.224647e-16 -1 1214.0271 1714.821)" class="st3" width="13.8" height="28.3"/>
				
					<rect x="565" y="843.3" transform="matrix(-1 -1.224647e-16 1.224647e-16 -1 1143.7683 1714.821)" class="st3" width="13.8" height="28.3"/>
				
					<rect x="529.8" y="843.3" transform="matrix(-1 -1.224647e-16 1.224647e-16 -1 1073.5095 1714.821)" class="st3" width="13.8" height="28.3"/>
				
					<rect x="494.7" y="843.3" transform="matrix(-1 -1.224647e-16 1.224647e-16 -1 1003.2508 1714.821)" class="st3" width="13.8" height="28.3"/>
			</g>
		</g>
		<g>
			<g>
				
					<rect x="1013.7" y="843.9" transform="matrix(6.123234e-17 -1 1 6.123234e-17 162.6013 1878.6442)" class="st3" width="13.8" height="28.3"/>
				<path class="st4" d="M1034.8,867.4h-28.3c-1.3,0-2.4-1.1-2.4-2.4v-13.8c0-1.3,1.1-2.4,2.4-2.4h28.3c1.3,0,2.4,1.1,2.4,2.4v13.8
					C1037.2,866.3,1036.1,867.4,1034.8,867.4z M1008.9,862.5h23.4v-9h-23.4V862.5z"/>
			</g>
			<g>
				
					<rect x="1013.7" y="808.8" transform="matrix(6.123234e-17 -1 1 6.123234e-17 197.7306 1843.5148)" class="st3" width="13.8" height="28.3"/>
				<path class="st4" d="M1034.8,832.2h-28.3c-1.3,0-2.4-1.1-2.4-2.4V816c0-1.3,1.1-2.4,2.4-2.4h28.3c1.3,0,2.4,1.1,2.4,2.4v13.8
					C1037.2,831.1,1036.1,832.2,1034.8,832.2z M1008.9,827.4h23.4v-9h-23.4V827.4z"/>
			</g>
			<g>
				
					<rect x="1013.7" y="773.6" transform="matrix(6.123234e-17 -1 1 6.123234e-17 232.86 1808.3854)" class="st3" width="13.8" height="28.3"/>
				<path class="st4" d="M1034.8,797.1h-28.3c-1.3,0-2.4-1.1-2.4-2.4v-13.8c0-1.3,1.1-2.4,2.4-2.4h28.3c1.3,0,2.4,1.1,2.4,2.4v13.8
					C1037.2,796,1036.1,797.1,1034.8,797.1z M1008.9,792.2h23.4v-9h-23.4V792.2z"/>
			</g>
			<g>
				
					<rect x="1013.7" y="738.5" transform="matrix(6.123234e-17 -1 1 6.123234e-17 267.9892 1773.2562)" class="st3" width="13.8" height="28.3"/>
				<path class="st4" d="M1034.8,762h-28.3c-1.3,0-2.4-1.1-2.4-2.4v-13.8c0-1.3,1.1-2.4,2.4-2.4h28.3c1.3,0,2.4,1.1,2.4,2.4v13.8
					C1037.2,760.9,1036.1,762,1034.8,762z M1008.9,757.1h23.4v-9h-23.4V757.1z"/>
			</g>
			<g>
				
					<rect x="956.2" y="843.9" transform="matrix(6.123234e-17 -1 1 6.123234e-17 105.0865 1821.1293)" class="st3" width="13.8" height="28.3"/>
				<path class="st4" d="M977.2,867.4H949c-1.3,0-2.4-1.1-2.4-2.4v-13.8c0-1.3,1.1-2.4,2.4-2.4h28.3c1.3,0,2.4,1.1,2.4,2.4v13.8
					C979.7,866.3,978.6,867.4,977.2,867.4z M951.4,862.5h23.4v-9h-23.4V862.5z"/>
			</g>
			<g>
				
					<rect x="956.2" y="808.8" transform="matrix(6.123234e-17 -1 1 6.123234e-17 140.2158 1786)" class="st3" width="13.8" height="28.3"/>
				<path class="st4" d="M977.2,832.2H949c-1.3,0-2.4-1.1-2.4-2.4V816c0-1.3,1.1-2.4,2.4-2.4h28.3c1.3,0,2.4,1.1,2.4,2.4v13.8
					C979.7,831.1,978.6,832.2,977.2,832.2z M951.4,827.4h23.4v-9h-23.4V827.4z"/>
			</g>
			<g>
				
					<rect x="956.2" y="773.6" transform="matrix(6.123234e-17 -1 1 6.123234e-17 175.3452 1750.8706)" class="st3" width="13.8" height="28.3"/>
				<path class="st4" d="M977.2,797.1H949c-1.3,0-2.4-1.1-2.4-2.4v-13.8c0-1.3,1.1-2.4,2.4-2.4h28.3c1.3,0,2.4,1.1,2.4,2.4v13.8
					C979.7,796,978.6,797.1,977.2,797.1z M951.4,792.2h23.4v-9h-23.4V792.2z"/>
			</g>
			<g>
				
					<rect x="956.2" y="738.5" transform="matrix(6.123234e-17 -1 1 6.123234e-17 210.4743 1715.7415)" class="st3" width="13.8" height="28.3"/>
				<path class="st4" d="M977.2,762H949c-1.3,0-2.4-1.1-2.4-2.4v-13.8c0-1.3,1.1-2.4,2.4-2.4h28.3c1.3,0,2.4,1.1,2.4,2.4v13.8
					C979.7,760.9,978.6,762,977.2,762z M951.4,757.1h23.4v-9h-23.4V757.1z"/>
			</g>
			<g>
				
					<rect x="898.7" y="843.9" transform="matrix(6.123234e-17 -1 1 6.123234e-17 47.5718 1763.6146)" class="st3" width="13.8" height="28.3"/>
				<path class="st4" d="M919.7,867.4h-28.3c-1.3,0-2.4-1.1-2.4-2.4v-13.8c0-1.3,1.1-2.4,2.4-2.4h28.3c1.3,0,2.4,1.1,2.4,2.4v13.8
					C922.2,866.3,921.1,867.4,919.7,867.4z M893.9,862.5h23.4v-9h-23.4V862.5z"/>
			</g>
			<g>
				
					<rect x="898.7" y="808.8" transform="matrix(6.123234e-17 -1 1 6.123234e-17 82.7012 1728.4852)" class="st3" width="13.8" height="28.3"/>
				<path class="st4" d="M919.7,832.2h-28.3c-1.3,0-2.4-1.1-2.4-2.4V816c0-1.3,1.1-2.4,2.4-2.4h28.3c1.3,0,2.4,1.1,2.4,2.4v13.8
					C922.2,831.1,921.1,832.2,919.7,832.2z M893.9,827.4h23.4v-9h-23.4V827.4z"/>
			</g>
			<g>
				
					<rect x="898.7" y="773.6" transform="matrix(6.123234e-17 -1 1 6.123234e-17 117.8305 1693.356)" class="st3" width="13.8" height="28.3"/>
				<path class="st4" d="M919.7,797.1h-28.3c-1.3,0-2.4-1.1-2.4-2.4v-13.8c0-1.3,1.1-2.4,2.4-2.4h28.3c1.3,0,2.4,1.1,2.4,2.4v13.8
					C922.2,796,921.1,797.1,919.7,797.1z M893.9,792.2h23.4v-9h-23.4V792.2z"/>
			</g>
			<g>
				
					<rect x="898.7" y="738.5" transform="matrix(6.123234e-17 -1 1 6.123234e-17 152.9597 1658.2268)" class="st3" width="13.8" height="28.3"/>
				<path class="st4" d="M919.7,762h-28.3c-1.3,0-2.4-1.1-2.4-2.4v-13.8c0-1.3,1.1-2.4,2.4-2.4h28.3c1.3,0,2.4,1.1,2.4,2.4v13.8
					C922.2,760.9,921.1,762,919.7,762z M893.9,757.1h23.4v-9h-23.4V757.1z"/>
			</g>
			<g>
				
					<rect x="841.2" y="843.9" transform="matrix(6.123234e-17 -1 1 6.123234e-17 -9.9429 1706.1)" class="st3" width="13.8" height="28.3"/>
				<path class="st4" d="M862.2,867.4h-28.3c-1.3,0-2.4-1.1-2.4-2.4v-13.8c0-1.3,1.1-2.4,2.4-2.4h28.3c1.3,0,2.4,1.1,2.4,2.4v13.8
					C864.6,866.3,863.6,867.4,862.2,867.4z M836.4,862.5h23.4v-9h-23.4V862.5z"/>
			</g>
			<g>
				
					<rect x="841.2" y="808.8" transform="matrix(6.123234e-17 -1 1 6.123234e-17 25.1865 1670.9706)" class="st3" width="13.8" height="28.3"/>
				<path class="st4" d="M862.2,832.2h-28.3c-1.3,0-2.4-1.1-2.4-2.4V816c0-1.3,1.1-2.4,2.4-2.4h28.3c1.3,0,2.4,1.1,2.4,2.4v13.8
					C864.6,831.1,863.6,832.2,862.2,832.2z M836.4,827.4h23.4v-9h-23.4V827.4z"/>
			</g>
			<g>
				
					<rect x="841.2" y="773.6" transform="matrix(6.123234e-17 -1 1 6.123234e-17 60.3158 1635.8413)" class="st3" width="13.8" height="28.3"/>
				<path class="st4" d="M862.2,797.1h-28.3c-1.3,0-2.4-1.1-2.4-2.4v-13.8c0-1.3,1.1-2.4,2.4-2.4h28.3c1.3,0,2.4,1.1,2.4,2.4v13.8
					C864.6,796,863.6,797.1,862.2,797.1z M836.4,792.2h23.4v-9h-23.4V792.2z"/>
			</g>
			<g>
				
					<rect x="841.2" y="738.5" transform="matrix(6.123234e-17 -1 1 6.123234e-17 95.445 1600.712)" class="st3" width="13.8" height="28.3"/>
				<path class="st4" d="M862.2,762h-28.3c-1.3,0-2.4-1.1-2.4-2.4v-13.8c0-1.3,1.1-2.4,2.4-2.4h28.3c1.3,0,2.4,1.1,2.4,2.4v13.8
					C864.6,760.9,863.6,762,862.2,762z M836.4,757.1h23.4v-9h-23.4V757.1z"/>
			</g>
			<g>
				
					<rect x="783.8" y="843.9" transform="matrix(6.123234e-17 -1 1 6.123234e-17 -67.3488 1648.6941)" class="st3" width="13.8" height="28.3"/>
				<path class="st4" d="M804.8,867.4h-28.3c-1.3,0-2.4-1.1-2.4-2.4v-13.8c0-1.3,1.1-2.4,2.4-2.4h28.3c1.3,0,2.4,1.1,2.4,2.4v13.8
					C807.2,866.3,806.1,867.4,804.8,867.4z M779,862.5h23.4v-9H779V862.5z"/>
			</g>
			<g>
				
					<rect x="783.8" y="808.8" transform="matrix(6.123234e-17 -1 1 6.123234e-17 -32.2194 1613.5647)" class="st3" width="13.8" height="28.3"/>
				<path class="st4" d="M804.8,832.2h-28.3c-1.3,0-2.4-1.1-2.4-2.4V816c0-1.3,1.1-2.4,2.4-2.4h28.3c1.3,0,2.4,1.1,2.4,2.4v13.8
					C807.2,831.1,806.1,832.2,804.8,832.2z M779,827.4h23.4v-9H779V827.4z"/>
			</g>
			<g>
				
					<rect x="783.8" y="773.6" transform="matrix(6.123234e-17 -1 1 6.123234e-17 2.9099 1578.4353)" class="st3" width="13.8" height="28.3"/>
				<path class="st4" d="M804.8,797.1h-28.3c-1.3,0-2.4-1.1-2.4-2.4v-13.8c0-1.3,1.1-2.4,2.4-2.4h28.3c1.3,0,2.4,1.1,2.4,2.4v13.8
					C807.2,796,806.1,797.1,804.8,797.1z M779,792.2h23.4v-9H779V792.2z"/>
			</g>
			<g>
				
					<rect x="783.8" y="738.5" transform="matrix(6.123234e-17 -1 1 6.123234e-17 38.0391 1543.3062)" class="st3" width="13.8" height="28.3"/>
				<path class="st4" d="M804.8,762h-28.3c-1.3,0-2.4-1.1-2.4-2.4v-13.8c0-1.3,1.1-2.4,2.4-2.4h28.3c1.3,0,2.4,1.1,2.4,2.4v13.8
					C807.2,760.9,806.1,762,804.8,762z M779,757.1h23.4v-9H779V757.1z"/>
			</g>
		</g>
		<g>
			<g>
				<g>
					<path class="st4" d="M701,886.3h22.7c1.8,0,3.2-1.5,3.2-3.2c0-1.8-1.5-3.2-3.2-3.2H701c-1.8,0-3.2,1.5-3.2,3.2
						C697.8,884.9,699.3,886.3,701,886.3z"/>
				</g>
				<path class="st4" d="M719.3,874.8h-13.8c-1.8,0-3.2-1.5-3.2-3.2v-28.3c0-1.8,1.5-3.2,3.2-3.2h13.8c1.8,0,3.2,1.5,3.2,3.2v28.3
					C722.6,873.3,721.1,874.8,719.3,874.8z M708.7,868.3h7.3v-21.8h-7.3V868.3z"/>
			</g>
			<g>
				<g>
					<path class="st4" d="M665.9,886.3h22.7c1.8,0,3.2-1.5,3.2-3.2c0-1.8-1.5-3.2-3.2-3.2h-22.7c-1.8,0-3.2,1.5-3.2,3.2
						C662.7,884.9,664.1,886.3,665.9,886.3z"/>
				</g>
				<path class="st4" d="M684.2,874.8h-13.8c-1.8,0-3.2-1.5-3.2-3.2v-28.3c0-1.8,1.5-3.2,3.2-3.2h13.8c1.8,0,3.2,1.5,3.2,3.2v28.3
					C687.4,873.3,686,874.8,684.2,874.8z M673.6,868.3h7.3v-21.8h-7.3V868.3z"/>
			</g>
			<g>
				<g>
					<path class="st4" d="M630.8,886.3h22.7c1.8,0,3.2-1.5,3.2-3.2c0-1.8-1.5-3.2-3.2-3.2h-22.7c-1.8,0-3.2,1.5-3.2,3.2
						C627.5,884.9,629,886.3,630.8,886.3z"/>
				</g>
				<path class="st4" d="M649,874.8h-13.8c-1.8,0-3.2-1.5-3.2-3.2v-28.3c0-1.8,1.5-3.2,3.2-3.2H649c1.8,0,3.2,1.5,3.2,3.2v28.3
					C652.3,873.3,650.8,874.8,649,874.8z M638.5,868.3h7.3v-21.8h-7.3V868.3z"/>
			</g>
			<g>
				<g>
					<path class="st4" d="M595.7,886.3h22.7c1.8,0,3.2-1.5,3.2-3.2c0-1.8-1.5-3.2-3.2-3.2h-22.7c-1.8,0-3.2,1.5-3.2,3.2
						C592.4,884.9,593.9,886.3,595.7,886.3z"/>
				</g>
				<path class="st4" d="M613.9,874.8h-13.8c-1.8,0-3.2-1.5-3.2-3.2v-28.3c0-1.8,1.5-3.2,3.2-3.2h13.8c1.8,0,3.2,1.5,3.2,3.2v28.3
					C617.2,873.3,615.7,874.8,613.9,874.8z M603.4,868.3h7.3v-21.8h-7.3V868.3z"/>
			</g>
			<g>
				<g>
					<path class="st4" d="M560.5,886.3h22.7c1.8,0,3.2-1.5,3.2-3.2c0-1.8-1.5-3.2-3.2-3.2h-22.7c-1.8,0-3.2,1.5-3.2,3.2
						C557.3,884.9,558.7,886.3,560.5,886.3z"/>
				</g>
				<path class="st4" d="M578.8,874.8H565c-1.8,0-3.2-1.5-3.2-3.2v-28.3c0-1.8,1.5-3.2,3.2-3.2h13.8c1.8,0,3.2,1.5,3.2,3.2v28.3
					C582,873.3,580.6,874.8,578.8,874.8z M568.2,868.3h7.3v-21.8h-7.3V868.3z"/>
			</g>
			<g>
				<g>
					<path class="st4" d="M525.4,886.3h22.7c1.8,0,3.2-1.5,3.2-3.2c0-1.8-1.5-3.2-3.2-3.2h-22.7c-1.8,0-3.2,1.5-3.2,3.2
						C522.2,884.9,523.6,886.3,525.4,886.3z"/>
				</g>
				<path class="st4" d="M543.7,874.8h-13.8c-1.8,0-3.2-1.5-3.2-3.2v-28.3c0-1.8,1.5-3.2,3.2-3.2h13.8c1.8,0,3.2,1.5,3.2,3.2v28.3
					C546.9,873.3,545.5,874.8,543.7,874.8z M533.1,868.3h7.3v-21.8h-7.3V868.3z"/>
			</g>
			<g>
				<g>
					<path class="st4" d="M490.3,886.3H513c1.8,0,3.2-1.5,3.2-3.2c0-1.8-1.5-3.2-3.2-3.2h-22.7c-1.8,0-3.2,1.5-3.2,3.2
						C487,884.9,488.5,886.3,490.3,886.3z"/>
				</g>
				<path class="st4" d="M508.5,874.8h-13.8c-1.8,0-3.2-1.5-3.2-3.2v-28.3c0-1.8,1.5-3.2,3.2-3.2h13.8c1.8,0,3.2,1.5,3.2,3.2v28.3
					C511.8,873.3,510.3,874.8,508.5,874.8z M498,868.3h7.3v-21.8H498V868.3z"/>
			</g>
		</g>
		<g>
			<g>
				<g>
					<path class="st4" d="M701,656.4h22.7c1.8,0,3.2-1.5,3.2-3.2c0-1.8-1.5-3.2-3.2-3.2H701c-1.8,0-3.2,1.5-3.2,3.2
						C697.8,654.9,699.3,656.4,701,656.4z"/>
				</g>
				<path class="st4" d="M719.3,644.8h-13.8c-1.8,0-3.2-1.5-3.2-3.2v-28.3c0-1.8,1.5-3.2,3.2-3.2h13.8c1.8,0,3.2,1.5,3.2,3.2v28.3
					C722.6,643.4,721.1,644.8,719.3,644.8z M708.7,638.3h7.3v-21.8h-7.3V638.3z"/>
			</g>
			<g>
				<g>
					<path class="st4" d="M665.9,656.4h22.7c1.8,0,3.2-1.5,3.2-3.2c0-1.8-1.5-3.2-3.2-3.2h-22.7c-1.8,0-3.2,1.5-3.2,3.2
						C662.7,654.9,664.1,656.4,665.9,656.4z"/>
				</g>
				<path class="st4" d="M684.2,644.8h-13.8c-1.8,0-3.2-1.5-3.2-3.2v-28.3c0-1.8,1.5-3.2,3.2-3.2h13.8c1.8,0,3.2,1.5,3.2,3.2v28.3
					C687.4,643.4,686,644.8,684.2,644.8z M673.6,638.3h7.3v-21.8h-7.3V638.3z"/>
			</g>
			<g>
				<g>
					<path class="st4" d="M630.8,656.4h22.7c1.8,0,3.2-1.5,3.2-3.2c0-1.8-1.5-3.2-3.2-3.2h-22.7c-1.8,0-3.2,1.5-3.2,3.2
						C627.5,654.9,629,656.4,630.8,656.4z"/>
				</g>
				<path class="st4" d="M649,644.8h-13.8c-1.8,0-3.2-1.5-3.2-3.2v-28.3c0-1.8,1.5-3.2,3.2-3.2H649c1.8,0,3.2,1.5,3.2,3.2v28.3
					C652.3,643.4,650.8,644.8,649,644.8z M638.5,638.3h7.3v-21.8h-7.3V638.3z"/>
			</g>
			<g>
				<g>
					<path class="st4" d="M595.7,656.4h22.7c1.8,0,3.2-1.5,3.2-3.2c0-1.8-1.5-3.2-3.2-3.2h-22.7c-1.8,0-3.2,1.5-3.2,3.2
						C592.4,654.9,593.9,656.4,595.7,656.4z"/>
				</g>
				<path class="st4" d="M613.9,644.8h-13.8c-1.8,0-3.2-1.5-3.2-3.2v-28.3c0-1.8,1.5-3.2,3.2-3.2h13.8c1.8,0,3.2,1.5,3.2,3.2v28.3
					C617.2,643.4,615.7,644.8,613.9,644.8z M603.4,638.3h7.3v-21.8h-7.3V638.3z"/>
			</g>
			<g>
				<g>
					<path class="st4" d="M560.5,656.4h22.7c1.8,0,3.2-1.5,3.2-3.2c0-1.8-1.5-3.2-3.2-3.2h-22.7c-1.8,0-3.2,1.5-3.2,3.2
						C557.3,654.9,558.7,656.4,560.5,656.4z"/>
				</g>
				<path class="st4" d="M578.8,644.8H565c-1.8,0-3.2-1.5-3.2-3.2v-28.3c0-1.8,1.5-3.2,3.2-3.2h13.8c1.8,0,3.2,1.5,3.2,3.2v28.3
					C582,643.4,580.6,644.8,578.8,644.8z M568.2,638.3h7.3v-21.8h-7.3V638.3z"/>
			</g>
			<g>
				<g>
					<path class="st4" d="M525.4,656.4h22.7c1.8,0,3.2-1.5,3.2-3.2c0-1.8-1.5-3.2-3.2-3.2h-22.7c-1.8,0-3.2,1.5-3.2,3.2
						C522.2,654.9,523.6,656.4,525.4,656.4z"/>
				</g>
				<path class="st4" d="M543.7,644.8h-13.8c-1.8,0-3.2-1.5-3.2-3.2v-28.3c0-1.8,1.5-3.2,3.2-3.2h13.8c1.8,0,3.2,1.5,3.2,3.2v28.3
					C546.9,643.4,545.5,644.8,543.7,644.8z M533.1,638.3h7.3v-21.8h-7.3V638.3z"/>
			</g>
			<g>
				<g>
					<path class="st4" d="M490.3,656.4H513c1.8,0,3.2-1.5,3.2-3.2c0-1.8-1.5-3.2-3.2-3.2h-22.7c-1.8,0-3.2,1.5-3.2,3.2
						C487,654.9,488.5,656.4,490.3,656.4z"/>
				</g>
				<path class="st4" d="M508.5,644.8h-13.8c-1.8,0-3.2-1.5-3.2-3.2v-28.3c0-1.8,1.5-3.2,3.2-3.2h13.8c1.8,0,3.2,1.5,3.2,3.2v28.3
					C511.8,643.4,510.3,644.8,508.5,644.8z M498,638.3h7.3v-21.8H498V638.3z"/>
			</g>
		</g>
		<g>
			<g>
				<g>
					<path class="st4" d="M701,713.9h22.7c1.8,0,3.2-1.5,3.2-3.2c0-1.8-1.5-3.2-3.2-3.2H701c-1.8,0-3.2,1.5-3.2,3.2
						C697.8,712.5,699.3,713.9,701,713.9z"/>
				</g>
				<path class="st4" d="M719.3,702.4h-13.8c-1.8,0-3.2-1.5-3.2-3.2v-28.3c0-1.8,1.5-3.2,3.2-3.2h13.8c1.8,0,3.2,1.5,3.2,3.2v28.3
					C722.6,700.9,721.1,702.4,719.3,702.4z M708.7,695.9h7.3v-21.8h-7.3V695.9z"/>
			</g>
			<g>
				<g>
					<path class="st4" d="M665.9,713.9h22.7c1.8,0,3.2-1.5,3.2-3.2c0-1.8-1.5-3.2-3.2-3.2h-22.7c-1.8,0-3.2,1.5-3.2,3.2
						C662.7,712.5,664.1,713.9,665.9,713.9z"/>
				</g>
				<path class="st4" d="M684.2,702.4h-13.8c-1.8,0-3.2-1.5-3.2-3.2v-28.3c0-1.8,1.5-3.2,3.2-3.2h13.8c1.8,0,3.2,1.5,3.2,3.2v28.3
					C687.4,700.9,686,702.4,684.2,702.4z M673.6,695.9h7.3v-21.8h-7.3V695.9z"/>
			</g>
			<g>
				<g>
					<path class="st4" d="M630.8,713.9h22.7c1.8,0,3.2-1.5,3.2-3.2c0-1.8-1.5-3.2-3.2-3.2h-22.7c-1.8,0-3.2,1.5-3.2,3.2
						C627.5,712.5,629,713.9,630.8,713.9z"/>
				</g>
				<path class="st4" d="M649,702.4h-13.8c-1.8,0-3.2-1.5-3.2-3.2v-28.3c0-1.8,1.5-3.2,3.2-3.2H649c1.8,0,3.2,1.5,3.2,3.2v28.3
					C652.3,700.9,650.8,702.4,649,702.4z M638.5,695.9h7.3v-21.8h-7.3V695.9z"/>
			</g>
			<g>
				<g>
					<path class="st4" d="M595.7,713.9h22.7c1.8,0,3.2-1.5,3.2-3.2c0-1.8-1.5-3.2-3.2-3.2h-22.7c-1.8,0-3.2,1.5-3.2,3.2
						C592.4,712.5,593.9,713.9,595.7,713.9z"/>
				</g>
				<path class="st4" d="M613.9,702.4h-13.8c-1.8,0-3.2-1.5-3.2-3.2v-28.3c0-1.8,1.5-3.2,3.2-3.2h13.8c1.8,0,3.2,1.5,3.2,3.2v28.3
					C617.2,700.9,615.7,702.4,613.9,702.4z M603.4,695.9h7.3v-21.8h-7.3V695.9z"/>
			</g>
			<g>
				<g>
					<path class="st4" d="M560.5,713.9h22.7c1.8,0,3.2-1.5,3.2-3.2c0-1.8-1.5-3.2-3.2-3.2h-22.7c-1.8,0-3.2,1.5-3.2,3.2
						C557.3,712.5,558.7,713.9,560.5,713.9z"/>
				</g>
				<path class="st4" d="M578.8,702.4H565c-1.8,0-3.2-1.5-3.2-3.2v-28.3c0-1.8,1.5-3.2,3.2-3.2h13.8c1.8,0,3.2,1.5,3.2,3.2v28.3
					C582,700.9,580.6,702.4,578.8,702.4z M568.2,695.9h7.3v-21.8h-7.3V695.9z"/>
			</g>
			<g>
				<g>
					<path class="st4" d="M525.4,713.9h22.7c1.8,0,3.2-1.5,3.2-3.2c0-1.8-1.5-3.2-3.2-3.2h-22.7c-1.8,0-3.2,1.5-3.2,3.2
						C522.2,712.5,523.6,713.9,525.4,713.9z"/>
				</g>
				<path class="st4" d="M543.7,702.4h-13.8c-1.8,0-3.2-1.5-3.2-3.2v-28.3c0-1.8,1.5-3.2,3.2-3.2h13.8c1.8,0,3.2,1.5,3.2,3.2v28.3
					C546.9,700.9,545.5,702.4,543.7,702.4z M533.1,695.9h7.3v-21.8h-7.3V695.9z"/>
			</g>
			<g>
				<g>
					<path class="st4" d="M490.3,713.9H513c1.8,0,3.2-1.5,3.2-3.2c0-1.8-1.5-3.2-3.2-3.2h-22.7c-1.8,0-3.2,1.5-3.2,3.2
						C487,712.5,488.5,713.9,490.3,713.9z"/>
				</g>
				<path class="st4" d="M508.5,702.4h-13.8c-1.8,0-3.2-1.5-3.2-3.2v-28.3c0-1.8,1.5-3.2,3.2-3.2h13.8c1.8,0,3.2,1.5,3.2,3.2v28.3
					C511.8,700.9,510.3,702.4,508.5,702.4z M498,695.9h7.3v-21.8H498V695.9z"/>
			</g>
		</g>
		<g>
			<g>
				<g>
					<path class="st4" d="M701,771.4h22.7c1.8,0,3.2-1.5,3.2-3.2c0-1.8-1.5-3.2-3.2-3.2H701c-1.8,0-3.2,1.5-3.2,3.2
						C697.8,770,699.3,771.4,701,771.4z"/>
				</g>
				<path class="st4" d="M719.3,759.9h-13.8c-1.8,0-3.2-1.5-3.2-3.2v-28.3c0-1.8,1.5-3.2,3.2-3.2h13.8c1.8,0,3.2,1.5,3.2,3.2v28.3
					C722.6,758.4,721.1,759.9,719.3,759.9z M708.7,753.4h7.3v-21.8h-7.3V753.4z"/>
			</g>
			<g>
				<g>
					<path class="st4" d="M665.9,771.4h22.7c1.8,0,3.2-1.5,3.2-3.2c0-1.8-1.5-3.2-3.2-3.2h-22.7c-1.8,0-3.2,1.5-3.2,3.2
						C662.7,770,664.1,771.4,665.9,771.4z"/>
				</g>
				<path class="st4" d="M684.2,759.9h-13.8c-1.8,0-3.2-1.5-3.2-3.2v-28.3c0-1.8,1.5-3.2,3.2-3.2h13.8c1.8,0,3.2,1.5,3.2,3.2v28.3
					C687.4,758.4,686,759.9,684.2,759.9z M673.6,753.4h7.3v-21.8h-7.3V753.4z"/>
			</g>
			<g>
				<g>
					<path class="st4" d="M630.8,771.4h22.7c1.8,0,3.2-1.5,3.2-3.2c0-1.8-1.5-3.2-3.2-3.2h-22.7c-1.8,0-3.2,1.5-3.2,3.2
						C627.5,770,629,771.4,630.8,771.4z"/>
				</g>
				<path class="st4" d="M649,759.9h-13.8c-1.8,0-3.2-1.5-3.2-3.2v-28.3c0-1.8,1.5-3.2,3.2-3.2H649c1.8,0,3.2,1.5,3.2,3.2v28.3
					C652.3,758.4,650.8,759.9,649,759.9z M638.5,753.4h7.3v-21.8h-7.3V753.4z"/>
			</g>
			<g>
				<g>
					<path class="st4" d="M595.7,771.4h22.7c1.8,0,3.2-1.5,3.2-3.2c0-1.8-1.5-3.2-3.2-3.2h-22.7c-1.8,0-3.2,1.5-3.2,3.2
						C592.4,770,593.9,771.4,595.7,771.4z"/>
				</g>
				<path class="st4" d="M613.9,759.9h-13.8c-1.8,0-3.2-1.5-3.2-3.2v-28.3c0-1.8,1.5-3.2,3.2-3.2h13.8c1.8,0,3.2,1.5,3.2,3.2v28.3
					C617.2,758.4,615.7,759.9,613.9,759.9z M603.4,753.4h7.3v-21.8h-7.3V753.4z"/>
			</g>
			<g>
				<g>
					<path class="st4" d="M560.5,771.4h22.7c1.8,0,3.2-1.5,3.2-3.2c0-1.8-1.5-3.2-3.2-3.2h-22.7c-1.8,0-3.2,1.5-3.2,3.2
						C557.3,770,558.7,771.4,560.5,771.4z"/>
				</g>
				<path class="st4" d="M578.8,759.9H565c-1.8,0-3.2-1.5-3.2-3.2v-28.3c0-1.8,1.5-3.2,3.2-3.2h13.8c1.8,0,3.2,1.5,3.2,3.2v28.3
					C582,758.4,580.6,759.9,578.8,759.9z M568.2,753.4h7.3v-21.8h-7.3V753.4z"/>
			</g>
			<g>
				<g>
					<path class="st4" d="M525.4,771.4h22.7c1.8,0,3.2-1.5,3.2-3.2c0-1.8-1.5-3.2-3.2-3.2h-22.7c-1.8,0-3.2,1.5-3.2,3.2
						C522.2,770,523.6,771.4,525.4,771.4z"/>
				</g>
				<path class="st4" d="M543.7,759.9h-13.8c-1.8,0-3.2-1.5-3.2-3.2v-28.3c0-1.8,1.5-3.2,3.2-3.2h13.8c1.8,0,3.2,1.5,3.2,3.2v28.3
					C546.9,758.4,545.5,759.9,543.7,759.9z M533.1,753.4h7.3v-21.8h-7.3V753.4z"/>
			</g>
			<g>
				<g>
					<path class="st4" d="M490.3,771.4H513c1.8,0,3.2-1.5,3.2-3.2c0-1.8-1.5-3.2-3.2-3.2h-22.7c-1.8,0-3.2,1.5-3.2,3.2
						C487,770,488.5,771.4,490.3,771.4z"/>
				</g>
				<path class="st4" d="M508.5,759.9h-13.8c-1.8,0-3.2-1.5-3.2-3.2v-28.3c0-1.8,1.5-3.2,3.2-3.2h13.8c1.8,0,3.2,1.5,3.2,3.2v28.3
					C511.8,758.4,510.3,759.9,508.5,759.9z M498,753.4h7.3v-21.8H498V753.4z"/>
			</g>
		</g>
		<g>
			<g>
				<g>
					<path class="st4" d="M701,828.9h22.7c1.8,0,3.2-1.5,3.2-3.2c0-1.8-1.5-3.2-3.2-3.2H701c-1.8,0-3.2,1.5-3.2,3.2
						C697.8,827.5,699.3,828.9,701,828.9z"/>
				</g>
				<path class="st4" d="M719.3,817.4h-13.8c-1.8,0-3.2-1.5-3.2-3.2v-28.3c0-1.8,1.5-3.2,3.2-3.2h13.8c1.8,0,3.2,1.5,3.2,3.2v28.3
					C722.6,815.9,721.1,817.4,719.3,817.4z M708.7,810.9h7.3v-21.8h-7.3V810.9z"/>
			</g>
			<g>
				<g>
					<path class="st4" d="M665.9,828.9h22.7c1.8,0,3.2-1.5,3.2-3.2c0-1.8-1.5-3.2-3.2-3.2h-22.7c-1.8,0-3.2,1.5-3.2,3.2
						C662.7,827.5,664.1,828.9,665.9,828.9z"/>
				</g>
				<path class="st4" d="M684.2,817.4h-13.8c-1.8,0-3.2-1.5-3.2-3.2v-28.3c0-1.8,1.5-3.2,3.2-3.2h13.8c1.8,0,3.2,1.5,3.2,3.2v28.3
					C687.4,815.9,686,817.4,684.2,817.4z M673.6,810.9h7.3v-21.8h-7.3V810.9z"/>
			</g>
			<g>
				<g>
					<path class="st4" d="M630.8,828.9h22.7c1.8,0,3.2-1.5,3.2-3.2c0-1.8-1.5-3.2-3.2-3.2h-22.7c-1.8,0-3.2,1.5-3.2,3.2
						C627.5,827.5,629,828.9,630.8,828.9z"/>
				</g>
				<path class="st4" d="M649,817.4h-13.8c-1.8,0-3.2-1.5-3.2-3.2v-28.3c0-1.8,1.5-3.2,3.2-3.2H649c1.8,0,3.2,1.5,3.2,3.2v28.3
					C652.3,815.9,650.8,817.4,649,817.4z M638.5,810.9h7.3v-21.8h-7.3V810.9z"/>
			</g>
			<g>
				<g>
					<path class="st4" d="M595.7,828.9h22.7c1.8,0,3.2-1.5,3.2-3.2c0-1.8-1.5-3.2-3.2-3.2h-22.7c-1.8,0-3.2,1.5-3.2,3.2
						C592.4,827.5,593.9,828.9,595.7,828.9z"/>
				</g>
				<path class="st4" d="M613.9,817.4h-13.8c-1.8,0-3.2-1.5-3.2-3.2v-28.3c0-1.8,1.5-3.2,3.2-3.2h13.8c1.8,0,3.2,1.5,3.2,3.2v28.3
					C617.2,815.9,615.7,817.4,613.9,817.4z M603.4,810.9h7.3v-21.8h-7.3V810.9z"/>
			</g>
			<g>
				<g>
					<path class="st4" d="M560.5,828.9h22.7c1.8,0,3.2-1.5,3.2-3.2c0-1.8-1.5-3.2-3.2-3.2h-22.7c-1.8,0-3.2,1.5-3.2,3.2
						C557.3,827.5,558.7,828.9,560.5,828.9z"/>
				</g>
				<path class="st4" d="M578.8,817.4H565c-1.8,0-3.2-1.5-3.2-3.2v-28.3c0-1.8,1.5-3.2,3.2-3.2h13.8c1.8,0,3.2,1.5,3.2,3.2v28.3
					C582,815.9,580.6,817.4,578.8,817.4z M568.2,810.9h7.3v-21.8h-7.3V810.9z"/>
			</g>
			<g>
				<g>
					<path class="st4" d="M525.4,828.9h22.7c1.8,0,3.2-1.5,3.2-3.2c0-1.8-1.5-3.2-3.2-3.2h-22.7c-1.8,0-3.2,1.5-3.2,3.2
						C522.2,827.5,523.6,828.9,525.4,828.9z"/>
				</g>
				<path class="st4" d="M543.7,817.4h-13.8c-1.8,0-3.2-1.5-3.2-3.2v-28.3c0-1.8,1.5-3.2,3.2-3.2h13.8c1.8,0,3.2,1.5,3.2,3.2v28.3
					C546.9,815.9,545.5,817.4,543.7,817.4z M533.1,810.9h7.3v-21.8h-7.3V810.9z"/>
			</g>
			<g>
				<g>
					<path class="st4" d="M490.3,828.9H513c1.8,0,3.2-1.5,3.2-3.2c0-1.8-1.5-3.2-3.2-3.2h-22.7c-1.8,0-3.2,1.5-3.2,3.2
						C487,827.5,488.5,828.9,490.3,828.9z"/>
				</g>
				<path class="st4" d="M508.5,817.4h-13.8c-1.8,0-3.2-1.5-3.2-3.2v-28.3c0-1.8,1.5-3.2,3.2-3.2h13.8c1.8,0,3.2,1.5,3.2,3.2v28.3
					C511.8,815.9,510.3,817.4,508.5,817.4z M498,810.9h7.3v-21.8H498V810.9z"/>
			</g>
		</g>
		<g>
			<path class="st4" d="M486.3,598.9h239.5c1.8,0,3.2-1.5,3.2-3.2c0-1.8-1.5-3.2-3.2-3.2H486.3c-1.8,0-3.2,1.5-3.2,3.2
				C483,597.4,484.5,598.9,486.3,598.9z"/>
		</g>
		<g>
			<rect x="580.5" y="569.2" class="st3" width="56.1" height="12.3"/>
			<path class="st4" d="M636.5,584.7h-55.9c-1.8,0-3.3-1.5-3.3-3.3v-12.1c0-1.8,1.5-3.3,3.3-3.3h55.9c1.8,0,3.3,1.5,3.3,3.3v12.1
				C639.8,583.2,638.3,584.7,636.5,584.7z M583.8,578.2h49.6v-5.8h-49.6V578.2z"/>
		</g>
		<rect x="546.4" y="655.1" class="st5" width="130.1" height="316.2"/>
		<g>
			<rect x="521" y="829.5" class="st3" width="25.2" height="25.2"/>
			<path class="st4" d="M546.1,858h-25c-1.8,0-3.3-1.5-3.3-3.3v-25c0-1.8,1.5-3.3,3.3-3.3h25c1.8,0,3.3,1.5,3.3,3.3v25
				C549.4,856.5,547.9,858,546.1,858z M524.2,851.5h18.7v-18.7h-18.7V851.5z"/>
		</g>
		<g>
			<rect x="495.7" y="829.5" class="st3" width="25.2" height="25.2"/>
			<path class="st4" d="M520.8,858h-25c-1.8,0-3.3-1.5-3.3-3.3v-25c0-1.8,1.5-3.3,3.3-3.3h25c1.8,0,3.3,1.5,3.3,3.3v25
				C524.1,856.5,522.6,858,520.8,858z M498.9,851.5h18.7v-18.7h-18.7V851.5z"/>
		</g>
		<g>
			<rect x="521" y="855.6" class="st3" width="25.2" height="25.2"/>
			<path class="st4" d="M546.1,884h-25c-1.8,0-3.3-1.5-3.3-3.3v-25c0-1.8,1.5-3.3,3.3-3.3h25c1.8,0,3.3,1.5,3.3,3.3v25
				C549.4,882.5,547.9,884,546.1,884z M524.2,877.5h18.7v-18.7h-18.7V877.5z"/>
		</g>
		<g>
			<rect x="384.2" y="705.9" class="st3" width="109.2" height="265.3"/>
			<path class="st4" d="M493.3,974.5h-109c-1.8,0-3.3-1.5-3.3-3.3V706c0-1.8,1.5-3.3,3.3-3.3h109c1.8,0,3.3,1.5,3.3,3.3v265.2
				C496.6,973,495.1,974.5,493.3,974.5z M387.4,968h102.7V709.1H387.4V968z"/>
		</g>
		<g>
			<rect x="495.7" y="855.6" class="st3" width="25.2" height="25.2"/>
			<path class="st4" d="M520.8,884h-25c-1.8,0-3.3-1.5-3.3-3.3v-25c0-1.8,1.5-3.3,3.3-3.3h25c1.8,0,3.3,1.5,3.3,3.3v25
				C524.1,882.5,522.6,884,520.8,884z M498.9,877.5h18.7v-18.7h-18.7V877.5z"/>
		</g>
		<g>
			<rect x="521" y="881.6" class="st3" width="25.2" height="25.2"/>
			<path class="st4" d="M546.1,910h-25c-1.8,0-3.3-1.5-3.3-3.3v-25c0-1.8,1.5-3.3,3.3-3.3h25c1.8,0,3.3,1.5,3.3,3.3v25
				C549.4,908.5,547.9,910,546.1,910z M524.2,903.5h18.7v-18.7h-18.7V903.5z"/>
		</g>
		<g>
			<rect x="495.7" y="881.6" class="st3" width="25.2" height="25.2"/>
			<path class="st4" d="M520.8,910h-25c-1.8,0-3.3-1.5-3.3-3.3v-25c0-1.8,1.5-3.3,3.3-3.3h25c1.8,0,3.3,1.5,3.3,3.3v25
				C524.1,908.5,522.6,910,520.8,910z M498.9,903.5h18.7v-18.7h-18.7V903.5z"/>
		</g>
		<g>
			<rect x="521" y="907.6" class="st3" width="25.2" height="25.2"/>
			<path class="st4" d="M546.1,936h-25c-1.8,0-3.3-1.5-3.3-3.3v-25c0-1.8,1.5-3.3,3.3-3.3h25c1.8,0,3.3,1.5,3.3,3.3v25
				C549.4,934.5,547.9,936,546.1,936z M524.2,929.5h18.7v-18.7h-18.7V929.5z"/>
		</g>
		<g>
			<rect x="495.7" y="907.6" class="st3" width="25.2" height="25.2"/>
			<path class="st4" d="M520.8,936h-25c-1.8,0-3.3-1.5-3.3-3.3v-25c0-1.8,1.5-3.3,3.3-3.3h25c1.8,0,3.3,1.5,3.3,3.3v25
				C524.1,934.5,522.6,936,520.8,936z M498.9,929.5h18.7v-18.7h-18.7V929.5z"/>
		</g>
		<g>
			<rect x="521" y="932.3" class="st3" width="25.2" height="25.2"/>
			<path class="st4" d="M546.1,960.7h-25c-1.8,0-3.3-1.5-3.3-3.3v-25c0-1.8,1.5-3.3,3.3-3.3h25c1.8,0,3.3,1.5,3.3,3.3v25
				C549.4,959.3,547.9,960.7,546.1,960.7z M524.2,954.3h18.7v-18.7h-18.7V954.3z"/>
		</g>
		<g>
			<rect x="495.7" y="932.3" class="st3" width="25.2" height="25.2"/>
			<path class="st4" d="M520.8,960.7h-25c-1.8,0-3.3-1.5-3.3-3.3v-25c0-1.8,1.5-3.3,3.3-3.3h25c1.8,0,3.3,1.5,3.3,3.3v25
				C524.1,959.3,522.6,960.7,520.8,960.7z M498.9,954.3h18.7v-18.7h-18.7V954.3z"/>
		</g>
		<path class="st4" d="M676.5,974.5H546.4c-1.8,0-3.2-1.5-3.2-3.2V651.7c0-1.8,1.5-3.2,3.2-3.2h130.1c1.8,0,3.2,1.5,3.2,3.2v319.5
			C679.7,973,678.3,974.5,676.5,974.5z M549.6,968h123.6v-313H549.6V968z"/>
		<g>
			<circle class="st3" cx="1643.9" cy="958.8" r="13.2"/>
			
				<ellipse transform="matrix(5.530079e-02 -0.9985 0.9985 5.530079e-02 633.0975 2592.5178)" class="st3" cx="1686.6" cy="961.7" rx="11.9" ry="11.9"/>
		</g>
		<g>
			<path class="st3" d="M658.7,716.1h-96.5H658.7z"/>
			<g>
				<path class="st4" d="M562.2,719.3h96.5c1.8,0,3.2-1.5,3.2-3.2c0-1.8-1.5-3.2-3.2-3.2h-96.5c-1.8,0-3.2,1.5-3.2,3.2
					C559,717.9,560.4,719.3,562.2,719.3z"/>
			</g>
		</g>
		<g>
			<path class="st3" d="M658.7,701h-96.5H658.7z"/>
			<g>
				<path class="st4" d="M562.2,704.3h96.5c1.8,0,3.2-1.5,3.2-3.2c0-1.8-1.5-3.2-3.2-3.2h-96.5c-1.8,0-3.2,1.5-3.2,3.2
					C559,702.8,560.4,704.3,562.2,704.3z"/>
			</g>
		</g>
		<g>
			<path class="st3" d="M567.3,732.7v236.1V732.7z"/>
			<g>
				<path class="st4" d="M567.3,972c1.8,0,3.2-1.5,3.2-3.2V732.7c0-1.8-1.5-3.2-3.2-3.2c-1.8,0-3.2,1.5-3.2,3.2v236.1
					C564.1,970.6,565.5,972,567.3,972z"/>
			</g>
		</g>
		<g>
			<path class="st3" d="M589.4,732.7v236.1V732.7z"/>
			<g>
				<path class="st4" d="M589.4,972c1.8,0,3.2-1.5,3.2-3.2V732.7c0-1.8-1.5-3.2-3.2-3.2c-1.8,0-3.2,1.5-3.2,3.2v236.1
					C586.2,970.6,587.6,972,589.4,972z"/>
			</g>
		</g>
		<g>
			<path class="st3" d="M611.5,732.7v236.1V732.7z"/>
			<g>
				<path class="st4" d="M611.5,972c1.8,0,3.2-1.5,3.2-3.2V732.7c0-1.8-1.5-3.2-3.2-3.2c-1.8,0-3.2,1.5-3.2,3.2v236.1
					C608.3,970.6,609.7,972,611.5,972z"/>
			</g>
		</g>
		<g>
			<path class="st3" d="M633.6,732.7v236.1V732.7z"/>
			<g>
				<path class="st4" d="M633.6,972c1.8,0,3.2-1.5,3.2-3.2V732.7c0-1.8-1.5-3.2-3.2-3.2c-1.8,0-3.2,1.5-3.2,3.2v236.1
					C630.4,970.6,631.8,972,633.6,972z"/>
			</g>
		</g>
		<g>
			<path class="st3" d="M655.7,732.7v236.1V732.7z"/>
			<g>
				<path class="st4" d="M655.7,972c1.8,0,3.2-1.5,3.2-3.2V732.7c0-1.8-1.5-3.2-3.2-3.2c-1.8,0-3.2,1.5-3.2,3.2v236.1
					C652.5,970.6,653.9,972,655.7,972z"/>
			</g>
		</g>
		<g>
			<rect x="621.2" y="900.4" class="st3" width="174.2" height="71.1"/>
			<path class="st4" d="M795.3,974.8H621.3c-1.8,0-3.3-1.5-3.3-3.3v-71c0-1.8,1.5-3.3,3.3-3.3h174.1c1.8,0,3.3,1.5,3.3,3.3v71
				C798.7,973.3,797.2,974.8,795.3,974.8z M624.4,968.3h167.7v-64.6H624.4V968.3z"/>
		</g>
		<g>
			<polygon class="st3" points="613.2,899.7 800.9,899.7 795.4,868.1 618.7,868.1 			"/>
			<path class="st4" d="M800.9,903H613.2c-1,0-1.9-0.4-2.5-1.2c-0.6-0.7-0.9-1.7-0.7-2.6l5.5-31.6c0.3-1.6,1.6-2.7,3.2-2.7h176.7
				c1.6,0,2.9,1.1,3.2,2.7l5.5,31.6c0.2,0.9-0.1,1.9-0.7,2.6C802.8,902.6,801.8,903,800.9,903z M617.1,896.5h180l-4.3-25.1H621.4
				L617.1,896.5z"/>
		</g>
		<rect x="676.8" y="918.8" class="st3" width="22.4" height="27.1"/>
		<rect x="637.7" y="920.4" class="st3" width="22.4" height="25.5"/>
		<g>
			<rect x="676.8" y="920.4" class="st3" width="22.4" height="25.5"/>
			<path class="st4" d="M699.2,949.1h-22.3c-1.8,0-3.3-1.5-3.3-3.3v-25.3c0-1.8,1.5-3.3,3.3-3.3h22.3c1.8,0,3.3,1.5,3.3,3.3v25.3
				C702.5,947.6,701,949.1,699.2,949.1z M680.1,942.6H696v-19h-15.9V942.6z"/>
		</g>
		<g>
			<rect x="715.8" y="920.4" class="st3" width="22.4" height="25.5"/>
			<path class="st4" d="M738.1,949.1h-22.3c-1.8,0-3.3-1.5-3.3-3.3v-25.3c0-1.8,1.5-3.3,3.3-3.3h22.3c1.8,0,3.3,1.5,3.3,3.3v25.3
				C741.5,947.6,740,949.1,738.1,949.1z M719,942.6H735v-19H719V942.6z"/>
		</g>
		<g>
			<rect x="755" y="920.4" class="st3" width="22.4" height="25.5"/>
			<path class="st4" d="M777.4,949.1h-22.3c-1.8,0-3.3-1.5-3.3-3.3v-25.3c0-1.8,1.5-3.3,3.3-3.3h22.3c1.8,0,3.3,1.5,3.3,3.3v25.3
				C780.7,947.6,779.2,949.1,777.4,949.1z M758.3,942.6h15.9v-19h-15.9V942.6z"/>
		</g>
		<g>
			<rect x="637.7" y="920.4" class="st3" width="22.4" height="25.5"/>
			<path class="st4" d="M660.1,949.1h-22.3c-1.8,0-3.3-1.5-3.3-3.3v-25.3c0-1.8,1.5-3.3,3.3-3.3h22.3c1.8,0,3.3,1.5,3.3,3.3v25.3
				C663.4,947.6,661.9,949.1,660.1,949.1z M640.9,942.6h15.9v-19h-15.9V942.6z"/>
		</g>
		<g>
			<path class="st4" d="M170.8,918.8c-1.8,0-3.3-1.5-3.3-3.3c0-1.8,1.5-3.3,3.3-3.3c1.8,0,3.3,1.5,3.3,3.3
				C174.1,917.4,172.6,918.8,170.8,918.8z"/>
			<path class="st4" d="M105.9,922.1c-1.8,0-3.3-1.5-3.3-3.3c0-1.8,1.5-3.3,3.3-3.3c1.8,0,3.3,1.5,3.3,3.3
				C109.2,920.7,107.7,922.1,105.9,922.1z"/>
			<path class="st4" d="M244.8,954.3c10.4-4.4,17.2-14.5,17.5-25.7c-0.4-15.4-13.1-27.7-28.5-27.7c-9.2,0-17.5,4.4-22.7,11.3v-9.8
				c6.1-5.2,14.1-8.3,22.7-8.3c19.2,0,34.9,15.4,35.3,34.5c-0.2,14-8.6,26.5-21.6,32c-1.7,0.7-3.7-0.1-4.4-1.8
				C242.2,957.1,243,955.1,244.8,954.3z"/>
			<path class="st4" d="M237,927.4c0,1.8-1.5,3.3-3.3,3.3c-1.8,0-3.3-1.5-3.3-3.3c0-1.8,1.5-3.3,3.3-3.3
				C235.5,924.1,237,925.5,237,927.4z"/>
			<path class="st4" d="M105.9,867.1c9.6,0,18.3,3.9,24.7,10.1v11c-4.9-8.5-14.2-14.3-24.7-14.3c-15.7,0-28.6,12.8-28.6,28.6V928
				c0,14.6,11,26.7,25.2,28.3v-25.1c0-1.9,1.5-3.4,3.4-3.4c1.9,0,3.4,1.5,3.4,3.4v43.3c0,1.9-1.5,3.4-3.4,3.4
				c-1.9,0-3.4-1.5-3.4-3.4v-11.3c-17.9-1.7-31.9-16.8-31.9-35.2v-25.6C70.6,883,86.4,867.1,105.9,867.1z"/>
			<path class="st4" d="M117,954.3c7-3,12.4-8.5,15.2-15.2c0.8,2.9,1.9,5.6,3.3,8.1c-3.8,5.8-9.2,10.5-15.9,13.3
				c-1.7,0.7-3.7-0.1-4.4-1.8C114.5,957.1,115.3,955.1,117,954.3z"/>
			<path class="st4" d="M230.3,956.4V941c0-1.9,1.5-3.4,3.4-3.4c1.9,0,3.4,1.5,3.4,3.4v33.6c0,1.9-1.5,3.4-3.4,3.4
				c-1.9,0-3.4-1.5-3.4-3.4v-11.3c-10.3-1-19.3-6.4-25.1-14.4c1.4-2.3,2.5-4.7,3.4-7.2C212.9,949.6,220.9,955.3,230.3,956.4z"/>
			<path class="st4" d="M135.5,860.2c0-19.5,15.9-35.3,35.3-35.3c19.5,0,35.3,15.9,35.3,35.3V928c0,14.2-8.5,27-21.6,32.5
				c-1.7,0.7-3.7-0.1-4.4-1.8c-0.7-1.7,0.1-3.7,1.8-4.4c10.6-4.5,17.5-14.8,17.5-26.3v-67.9c0-15.7-12.8-28.6-28.6-28.6
				c-15.7,0-28.6,12.8-28.6,28.6V928c0,14.6,11,26.7,25.2,28.3v-25.1c0-1.9,1.5-3.4,3.4-3.4c1.9,0,3.4,1.5,3.4,3.4v43.3
				c0,1.9-1.5,3.4-3.4,3.4c-1.9,0-3.4-1.5-3.4-3.4v-11.3c-17.9-1.7-31.9-16.8-31.9-35.2V860.2z"/>
		</g>
		<g>
			<path class="st4" d="M79.1,850.9h0.5c0.9,0,1.8-0.4,2.4-1c0.6-0.6,1-1.5,1-2.4c0-2.3,0.9-4.4,2.5-6c1.6-1.6,3.7-2.4,5.8-2.3
				c1.9,0,3.4-1.4,3.5-3.3c0-1.9-1.4-3.4-3.3-3.5c-3.9-0.1-7.8,1.5-10.7,4.3c-0.5,0.5-1,1-1.4,1.6c-0.4-0.6-0.9-1.1-1.4-1.6
				c-2.9-2.8-6.7-4.3-10.7-4.3c-1.9,0-3.4,1.6-3.3,3.5c0,1.8,1.5,3.3,3.4,3.3c0.1,0,0.2,0,0.2,0c2.1,0,4,0.8,5.6,2.3
				c1.6,1.6,2.5,3.8,2.5,6c0,0.9,0.4,1.8,1,2.4C77.4,850.6,78.2,850.9,79.1,850.9z"/>
		</g>
		<g>
			<path class="st4" d="M46.8,830.4h0.5c0.9,0,1.8-0.4,2.4-1c0.6-0.6,1-1.5,1-2.4c0-2.3,0.9-4.4,2.5-6c1.6-1.6,3.6-2.4,5.8-2.3
				c1.9,0.1,3.4-1.4,3.5-3.3c0-1.9-1.4-3.4-3.3-3.5c-3.9-0.1-7.8,1.5-10.7,4.3c-0.5,0.5-1,1-1.4,1.6c-0.4-0.6-0.9-1.1-1.4-1.6
				c-2.9-2.8-6.8-4.4-10.7-4.3c-1.9,0-3.4,1.6-3.3,3.5c0,1.8,1.5,3.3,3.4,3.3c0.1,0,0.2,0,0.2,0c2.1,0,4,0.8,5.6,2.3
				c1.6,1.6,2.5,3.8,2.5,6c0,0.9,0.4,1.8,1,2.4C45,830.1,45.9,830.4,46.8,830.4z"/>
		</g>
		<g>
			<path class="st4" d="M46.1,865.2h0.3c0.9,0,1.8-0.4,2.4-1c0.6-0.6,1-1.5,1-2.4c0-1.1,0.4-2.1,1.2-2.9c0.8-0.7,1.8-1.1,2.7-1.1
				c0,0,0.1,0,0.1,0c1.8,0,3.3-1.5,3.4-3.3c0-1.9-1.4-3.4-3.3-3.5c-2.8-0.1-5.6,1.1-7.6,3c0,0,0,0,0,0c0,0,0,0,0,0
				c-2-2-4.8-3.1-7.6-3c-1.9,0-3.4,1.6-3.3,3.5c0,1.9,1.6,3.4,3.5,3.3c0.9,0,2,0.4,2.7,1.1c0.8,0.8,1.2,1.8,1.2,2.9
				c0,0.9,0.4,1.8,1,2.4C44.4,864.9,45.2,865.2,46.1,865.2z"/>
		</g>
		<g>
			<path class="st3" d="M1467.5,690.3l5.2-12.9c0,0-0.4-9.3-1.4-9.2c-1,0.1-8.2-5.1-8.2-5.1l-10.4-5.3l-7-6.2l-9.7-1.5l-9.8-4
				l-19.7-4.5l-15.2,8.6l-29.5,16.9l-0.5,17.9l6.2,5.9l17.7-1.8l16.9,1.8l29-1l20.6,1L1467.5,690.3z"/>
			<g>
				<g>
					<path class="st4" d="M1426,720.3c0.9,0,1.9-0.4,2.5-1.1l12.4-13.8c1.3-1.4,1.1-3.5-0.2-4.8c-1.4-1.3-3.5-1.1-4.8,0.2
						l-12.4,13.8c-1.3,1.4-1.1,3.5,0.2,4.8C1424.4,720,1425.2,720.3,1426,720.3z"/>
				</g>
				<g>
					<path class="st4" d="M1410.3,720.3c0.9,0,1.9-0.4,2.5-1.1l12.4-13.8c1.3-1.4,1.1-3.5-0.2-4.8c-1.4-1.3-3.5-1.1-4.8,0.2
						l-12.4,13.8c-1.3,1.4-1.1,3.5,0.2,4.8C1408.7,720,1409.5,720.3,1410.3,720.3z"/>
				</g>
				<g>
					<path class="st4" d="M1394.6,720.3c0.9,0,1.9-0.4,2.5-1.1l12.4-13.8c1.3-1.4,1.1-3.5-0.2-4.8c-1.4-1.3-3.5-1.1-4.8,0.2
						l-12.4,13.8c-1.3,1.4-1.1,3.5,0.2,4.8C1393,720,1393.8,720.3,1394.6,720.3z"/>
				</g>
				<g>
					<path class="st4" d="M1379,720.3c0.9,0,1.9-0.4,2.5-1.1l12.4-13.8c1.3-1.4,1.1-3.5-0.2-4.8c-1.4-1.3-3.5-1.1-4.8,0.2
						l-12.4,13.8c-1.3,1.4-1.1,3.5,0.2,4.8C1377.3,720,1378.1,720.3,1379,720.3z"/>
				</g>
				<path class="st4" d="M1458.1,694.3c-3.3,0-6.6-0.9-9.4-2.7c-3.4,1.8-7.1,2.7-11,2.7c-4.2,0-8.2-1.1-11.8-3.1
					c-4,2.1-8.4,3.1-12.9,3.1c-3.5,0-6.9-0.6-10.2-1.9c-3,1.3-6.1,1.9-9.3,1.9c-3.8,0-7.6-0.9-11-2.7c-2.8,1.7-6.1,2.7-9.4,2.7
					c-9.9,0-18-8.1-18-18c0-9.9,8-17.9,17.9-18c4.1-7,11.6-11.4,19.8-11.7c5.3-5.5,12.6-8.6,20.2-8.6c7.9,0,15.3,3.2,20.6,9
					c1.4-0.2,2.8-0.4,4.1-0.4c8.4,0,16.2,4.5,20.5,11.7c9.9,0,17.9,8.1,17.9,18C1476.1,686.2,1468,694.3,1458.1,694.3z
					 M1448.9,684.2c0.8,0,1.5,0.3,2.2,0.8c2,1.6,4.5,2.5,7.1,2.5c6.2,0,11.2-5,11.2-11.2c0-6.2-5-11.2-11.2-11.2c-0.5,0-1,0-1.5,0.1
					c-1.5,0.2-2.9-0.6-3.5-1.9c-2.8-6-8.9-9.9-15.4-9.9c-1.5,0-3,0.2-4.5,0.6c-1.3,0.4-2.7-0.1-3.5-1.2c-4.1-5.1-10.2-8-16.7-8
					c-6.2,0-12.1,2.7-16.2,7.4c-0.7,0.8-1.7,1.2-2.7,1.2c-0.2,0-0.4,0-0.6,0c-6.6,0-12.7,3.9-15.4,9.9c-0.6,1.3-2,2.1-3.5,1.9
					c-0.5-0.1-1-0.1-1.5-0.1c-6.2,0-11.2,5-11.2,11.2c0,6.2,5,11.2,11.2,11.2c2.6,0,5.1-0.9,7.1-2.5c1.1-0.9,2.8-1,4-0.2
					c2.8,1.8,6,2.8,9.3,2.8c2.7,0,5.3-0.6,7.7-1.9c0.9-0.5,2-0.5,3-0.1c2.8,1.3,5.8,1.9,8.8,1.9c4,0,7.9-1.1,11.2-3.2
					c1.2-0.7,2.6-0.7,3.7,0.1c2.9,2,6.3,3.1,9.8,3.1c3.3,0,6.5-1,9.3-2.8C1447.6,684.4,1448.2,684.2,1448.9,684.2z"/>
			</g>
		</g>
		<g>
			<g>
				<path class="st4" d="M1384,850.3h33.4c1.9,0,3.4-1.5,3.4-3.4s-1.5-3.4-3.4-3.4H1384c-1.9,0-3.4,1.5-3.4,3.4
					S1382.2,850.3,1384,850.3z"/>
			</g>
			<g>
				<path class="st4" d="M1368.4,848.2c1.9,0,3.4-1.5,3.4-3.4c0-1.9-1.5-3.4-3.4-3.4c-11.2,0-20.3-9.1-20.3-20.3
					c0-11.2,9.1-20.3,20.3-20.3c11.2,0,20.3,9.1,20.3,20.3c0,1.9,1.5,3.4,3.4,3.4s3.4-1.5,3.4-3.4c0-15-12.2-27.1-27.1-27.1
					c-15,0-27.1,12.2-27.1,27.1C1341.3,836.1,1353.5,848.2,1368.4,848.2z"/>
			</g>
			<g>
				<path class="st4" d="M1368.2,838.3h30c1.9,0,3.4-1.5,3.4-3.4c0-1.9-1.5-3.4-3.4-3.4h-30c-1.9,0-3.4,1.5-3.4,3.4
					C1364.8,836.8,1366.4,838.3,1368.2,838.3z"/>
			</g>
			<g>
				<path class="st4" d="M1369.1,838.3c1.9,0,3.4-1.5,3.4-3.4c0-1.9-1.5-3.4-3.4-3.4c-5.3,0-9.6-4.3-9.6-9.6c0-5.3,4.3-9.6,9.6-9.6
					c5.3,0,9.6,4.3,9.6,9.6c0,1.9,1.5,3.4,3.4,3.4c1.9,0,3.4-1.5,3.4-3.4c0-9-7.3-16.3-16.3-16.3c-9,0-16.3,7.3-16.3,16.3
					C1352.8,831,1360.1,838.3,1369.1,838.3z"/>
			</g>
		</g>
		<g>
			<g>
				<path class="st4" d="M129.3,764.6h33.4c1.9,0,3.4-1.5,3.4-3.4s-1.5-3.4-3.4-3.4h-33.4c-1.9,0-3.4,1.5-3.4,3.4
					S127.4,764.6,129.3,764.6z"/>
			</g>
			<g>
				<path class="st4" d="M113.7,762.6c1.9,0,3.4-1.5,3.4-3.4s-1.5-3.4-3.4-3.4c-11.2,0-20.3-9.1-20.3-20.3
					c0-11.2,9.1-20.3,20.3-20.3c11.2,0,20.3,9.1,20.3,20.3c0,1.9,1.5,3.4,3.4,3.4c1.9,0,3.4-1.5,3.4-3.4c0-15-12.2-27.1-27.1-27.1
					c-15,0-27.1,12.2-27.1,27.1C86.6,750.4,98.8,762.6,113.7,762.6z"/>
			</g>
			<g>
				<path class="st4" d="M113.5,752.6h30c1.9,0,3.4-1.5,3.4-3.4c0-1.9-1.5-3.4-3.4-3.4h-30c-1.9,0-3.4,1.5-3.4,3.4
					C110.1,751.1,111.7,752.6,113.5,752.6z"/>
			</g>
			<g>
				<path class="st4" d="M114.4,752.6c1.9,0,3.4-1.5,3.4-3.4c0-1.9-1.5-3.4-3.4-3.4c-5.3,0-9.6-4.3-9.6-9.6c0-5.3,4.3-9.6,9.6-9.6
					c5.3,0,9.6,4.3,9.6,9.6c0,1.9,1.5,3.4,3.4,3.4c1.9,0,3.4-1.5,3.4-3.4c0-9-7.3-16.3-16.3-16.3c-9,0-16.3,7.3-16.3,16.3
					C98.1,745.3,105.4,752.6,114.4,752.6z"/>
			</g>
		</g>
		<g>
			<path class="st4" d="M1674.8,835.5h33.4c1.9,0,3.4-1.5,3.4-3.4s-1.5-3.4-3.4-3.4h-33.4c-1.9,0-3.4,1.5-3.4,3.4
				S1673,835.5,1674.8,835.5z"/>
		</g>
		<g>
			<path class="st4" d="M1659,823.5h30c1.9,0,3.4-1.5,3.4-3.4c0-1.9-1.5-3.4-3.4-3.4h-30c-1.9,0-3.4,1.5-3.4,3.4
				C1655.6,822,1657.2,823.5,1659,823.5z"/>
		</g>
		<g>
			<path class="st4" d="M1659.9,823.5c1.9,0,3.4-1.5,3.4-3.4c0-1.9-1.5-3.4-3.4-3.4c-5.3,0-9.6-4.3-9.6-9.6c0-5.3,4.3-9.6,9.6-9.6
				c5.3,0,9.6,4.3,9.6,9.6c0,1.9,1.5,3.4,3.4,3.4c1.9,0,3.4-1.5,3.4-3.4c0-9-7.3-16.3-16.3-16.3c-9,0-16.3,7.3-16.3,16.3
				S1650.9,823.5,1659.9,823.5z"/>
		</g>
		<g>
			
				<ellipse transform="matrix(0.9567 -0.291 0.291 0.9567 -177.9433 80.4058)" class="st3" cx="181.3" cy="638.4" rx="20.1" ry="20.1"/>
			<g>
				<path class="st4" d="M205,621.1c-1.4-1.8-3-3.4-4.8-4.8l3-3c1.3-1.3,3.5-1.3,4.8,0c1.3,1.3,1.3,3.5,0,4.8L205,621.1z"/>
				<path class="st4" d="M178.7,610.2V606c0-1.9,1.5-3.4,3.4-3.4s3.4,1.5,3.4,3.4v4.3c-1.1-0.1-2.2-0.2-3.4-0.2
					C181,610,179.9,610.1,178.7,610.2z"/>
				<path class="st4" d="M215.3,635.8c1.9,0,3.4,1.5,3.4,3.4c0,1.9-1.5,3.4-3.4,3.4h-4.3c0.1-1.1,0.2-2.2,0.2-3.4
					c0-1.1-0.1-2.3-0.2-3.4H215.3z"/>
				<path class="st4" d="M161.1,613.3l3,3c-1.8,1.4-3.4,3-4.8,4.8l-3-3c-1.3-1.3-1.3-3.5,0-4.8C157.6,612,159.7,612,161.1,613.3z"/>
				<path class="st4" d="M148.9,635.8h4.3c-0.1,1.1-0.2,2.2-0.2,3.4c0,1.1,0.1,2.3,0.2,3.4h-4.3c-1.9,0-3.4-1.5-3.4-3.4
					C145.5,637.3,147.1,635.8,148.9,635.8z"/>
				<path class="st4" d="M159.3,657.2c1.4,1.8,3,3.4,4.8,4.8l-3,3c-0.7,0.7-1.5,1-2.4,1c-0.9,0-1.7-0.3-2.4-1
					c-1.3-1.3-1.3-3.5,0-4.8L159.3,657.2z"/>
				<path class="st4" d="M205,657.2l3,3c1.3,1.3,1.3,3.5,0,4.8c-0.7,0.7-1.5,1-2.4,1c-0.9,0-1.7-0.3-2.4-1l-3-3
					C202,660.6,203.6,659,205,657.2z"/>
				<path class="st4" d="M185.5,668.1v4.3c0,1.9-1.5,3.4-3.4,3.4s-3.4-1.5-3.4-3.4v-4.3c1.1,0.1,2.2,0.2,3.4,0.2
					C183.3,668.3,184.4,668.2,185.5,668.1z"/>
				<path class="st4" d="M158.6,639.2c0,13,10.5,23.5,23.5,23.5s23.5-10.5,23.5-23.5c0-13-10.5-23.5-23.5-23.5
					S158.6,626.2,158.6,639.2z M165.2,639.2c0-9.3,7.6-16.9,16.9-16.9s16.9,7.6,16.9,16.9c0,9.3-7.6,16.9-16.9,16.9
					S165.2,648.5,165.2,639.2z"/>
			</g>
		</g>
		<g>
			<path class="st4" d="M1141.9,935.8l13-13h-0.2c-4.4,0-8.2-2.5-9.9-6.6c-1.7-4-0.8-8.5,2.2-11.6l13.8-13.8h-0.1
				c-3.6,0-6.9-2.2-8.3-5.5c-1.4-3.4-0.7-7.1,1.8-9.6l18.3-18.3c3.7-3.7,9.7-3.7,13.3,0l18.2,18.2l0.1,0.1c2.5,2.6,3.3,6.3,1.8,9.6
				c-1.4,3.3-4.6,5.5-8.3,5.5h-0.1l13.8,13.8c0,0,0.1,0.1,0.1,0.1c3.1,3.1,3.9,7.5,2.2,11.6c-1.7,4.1-5.5,6.6-9.9,6.6h-0.2
				l12.9,12.9l0.1,0.1c3.4,3.5,4.4,8.4,2.5,12.9c-1.9,4.6-6.2,7.4-11.1,7.4h-16.3c-1.9,0-3.4-1.5-3.4-3.4c0-1.9,1.5-3.4,3.4-3.4
				h16.3c2.6,0,4.2-1.7,4.8-3.2c0.8-2,0.4-4-1-5.5c0,0-0.1-0.1-0.1-0.1l-18.6-18.6c-1-1-1.3-2.4-0.7-3.7c0.5-1.3,1.8-2.1,3.1-2.1
				h8.4c2.5,0,3.4-1.9,3.7-2.5c0.2-0.6,0.9-2.5-0.8-4.2l2.4-2.4l-2.5,2.3l-19.5-19.5c-1-1-1.3-2.4-0.7-3.7c0.5-1.3,1.8-2.1,3.1-2.1
				h8.3c1.3,0,1.9-1,2-1.3c0.2-0.4,0.4-1.4-0.5-2.3l-18.1-18.1c-1-1-2.7-1-3.7,0l-18.2,18.2c-0.9,0.9-0.6,1.9-0.4,2.3
				c0.1,0.3,0.7,1.3,2,1.3h8.3c1.4,0,2.6,0.8,3.1,2.1c0.5,1.3,0.2,2.7-0.7,3.7l-19.5,19.5l-0.1,0.1c-1.7,1.7-1,3.6-0.8,4.2
				c0.2,0.6,1.2,2.5,3.7,2.5h8.4c1.4,0,2.6,0.8,3.1,2.1c0.5,1.3,0.2,2.7-0.7,3.7l-18.6,18.6l-0.1,0.1c-1.5,1.5-1.9,3.6-1,5.5
				c0.7,1.6,2.3,3.2,4.8,3.2h27.4c0.4,0,0.8,0.1,1.2,0.2c0,0,0,0,0,0c1.9,0,3.4,1.5,3.4,3.4v21.6c0,1.9-1.5,3.4-3.4,3.4
				s-3.4-1.5-3.4-3.4v-18.5h-25.3c-4.9,0-9.2-2.8-11.1-7.4C1137.6,944.2,1138.5,939.2,1141.9,935.8z"/>
			<path class="st4" d="M1179.2,944c-1.8,0-3.3-1.5-3.3-3.3s1.5-3.3,3.3-3.3c1.8,0,3.3,1.5,3.3,3.3S1181,944,1179.2,944z"/>
			<path class="st4" d="M1251,921c-1.8,0-3.3-1.5-3.3-3.3c0-1.8,1.5-3.3,3.3-3.3c1.8,0,3.3,1.5,3.3,3.3
				C1254.3,919.5,1252.9,921,1251,921z"/>
			<path class="st4" d="M1298.8,916c1.4,0,2.6,0.8,3.1,2.1c0.5,1.3,0.2,2.7-0.7,3.7L1291,932c0.1-1.3,0.2-2.6,0.2-3.9v-12H1298.8z"
				/>
			<path class="st4" d="M1325.1,883.9h8.3c1.3,0,1.9-1,2-1.3c0.2-0.4,0.4-1.4-0.5-2.3l-18.1-18.1c-1-1-2.7-1-3.7,0l-18.2,18.2
				c-0.9,0.9-0.6,1.9-0.4,2.3c0.1,0.3,0.7,1.3,2,1.3h8.3c1.4,0,2.6,0.8,3.1,2.1c0.5,1.3,0.2,2.7-0.7,3.7l-15.9,15.9V896l5.3-5.3
				h-0.1c-1.9,0-3.7-0.6-5.2-1.7v-14.6l17-17.1c3.7-3.7,9.7-3.7,13.3,0l18.2,18.2l0.1,0.1c2.5,2.6,3.3,6.3,1.8,9.6
				c-1.4,3.3-4.6,5.5-8.3,5.5h-0.1l13.8,13.8c0,0,0.1,0.1,0.1,0.1c3.1,3.1,3.9,7.5,2.2,11.6c-1.7,4.1-5.5,6.6-9.9,6.6h-0.2
				l12.9,12.9l0.1,0.1c3.4,3.5,4.4,8.4,2.5,12.9c-1.9,4.6-6.2,7.4-11.1,7.4h-16.3c-1.9,0-3.4-1.5-3.4-3.4c0-1.9,1.5-3.4,3.4-3.4
				h16.3c2.6,0,4.2-1.7,4.8-3.2c0.8-2,0.4-4-1-5.5c0,0-0.1-0.1-0.1-0.1l-18.6-18.6c-1-1-1.3-2.4-0.7-3.7c0.5-1.3,1.8-2.1,3.1-2.1
				h8.4c2.5,0,3.4-1.9,3.7-2.5c0.2-0.6,0.9-2.5-0.8-4.2l2.4-2.4l-2.5,2.3l-19.5-19.5c-1-1-1.3-2.4-0.7-3.7
				C1322.5,884.8,1323.8,883.9,1325.1,883.9z"/>
			<path class="st4" d="M1286.3,949.3h27.4c0.4,0,0.8,0.1,1.2,0.2c0,0,0,0,0,0c1.9,0,3.4,1.5,3.4,3.4v21.6c0,1.9-1.5,3.4-3.4,3.4
				s-3.4-1.5-3.4-3.4v-18.5h-25.3c-1.9,0-3.7-0.4-5.3-1.2c1.6-1.8,3-3.7,4.3-5.7C1285.5,949.2,1285.9,949.3,1286.3,949.3z"/>
			<path class="st4" d="M1215.7,928.1C1215.7,928.1,1215.7,928.1,1215.7,928.1l0-6.1c1-1.2,1.8-2.5,2.4-4c2.3-5.5,1.4-11.5-2.4-16
				v-41.9c0-19.5,15.9-35.3,35.3-35.3c19.5,0,35.3,15.9,35.3,35.3V928c0,14.2-8.5,27-21.6,32.5c-1.7,0.7-3.7-0.1-4.4-1.8
				c-0.7-1.7,0.1-3.7,1.8-4.4c10.6-4.5,17.5-14.8,17.5-26.3v-67.9c0-15.7-12.8-28.6-28.6-28.6c-15.7,0-28.6,12.8-28.6,28.6V928
				c0,14.6,11,26.7,25.2,28.3v-25.1c0-1.9,1.5-3.4,3.4-3.4c1.9,0,3.4,1.5,3.4,3.4v43.3c0,1.9-1.5,3.4-3.4,3.4
				c-1.9,0-3.4-1.5-3.4-3.4v-11.3c-9.7-0.9-18.3-5.8-24.1-13c2.5-6.2,1.1-13.1-3.6-17.8L1215.7,928.1z"/>
		</g>
		<g>
			<path class="st4" d="M362.9,825.6c3.3,0,6,2.7,6,6c0,3.3-2.7,6-6,6c-3.3,0-6-2.7-6-6C357,828.3,359.6,825.6,362.9,825.6z"/>
			<path class="st4" d="M345.6,825.6c3.3,0,6,2.7,6,6c0,3.3-2.7,6-6,6c-3.3,0-6-2.7-6-6C339.7,828.3,342.4,825.6,345.6,825.6z"/>
			<path class="st4" d="M328.4,825.6c3.3,0,6,2.7,6,6c0,3.3-2.7,6-6,6c-3.3,0-6-2.7-6-6C322.4,828.3,325.1,825.6,328.4,825.6z"/>
			<path class="st4" d="M311.1,837.6c-3.3,0-6-2.7-6-6c0-3.3,2.7-6,6-6c3.3,0,6,2.7,6,6C317,834.9,314.4,837.6,311.1,837.6z"/>
			<path class="st4" d="M362.9,844.9c3.3,0,6,2.7,6,6c0,3.3-2.7,6-6,6c-3.3,0-6-2.7-6-6C357,847.6,359.6,844.9,362.9,844.9z"/>
			<path class="st4" d="M345.6,844.9c3.3,0,6,2.7,6,6c0,3.3-2.7,6-6,6c-3.3,0-6-2.7-6-6C339.7,847.6,342.4,844.9,345.6,844.9z"/>
			<path class="st4" d="M328.4,844.9c3.3,0,6,2.7,6,6c0,3.3-2.7,6-6,6c-3.3,0-6-2.7-6-6C322.4,847.6,325.1,844.9,328.4,844.9z"/>
			<path class="st4" d="M311.1,844.9c3.3,0,6,2.7,6,6c0,3.3-2.7,6-6,6c-3.3,0-6-2.7-6-6C305.1,847.6,307.8,844.9,311.1,844.9z"/>
			<path class="st4" d="M362.9,864.2c3.3,0,6,2.7,6,6c0,3.3-2.7,6-6,6c-3.3,0-6-2.7-6-6C357,866.9,359.6,864.2,362.9,864.2z"/>
			<path class="st4" d="M345.6,864.2c3.3,0,6,2.7,6,6c0,3.3-2.7,6-6,6c-3.3,0-6-2.7-6-6C339.7,866.9,342.4,864.2,345.6,864.2z"/>
			<path class="st4" d="M328.4,864.2c3.3,0,6,2.7,6,6c0,3.3-2.7,6-6,6c-3.3,0-6-2.7-6-6C322.4,866.9,325.1,864.2,328.4,864.2z"/>
			<path class="st4" d="M311.1,864.2c3.3,0,6,2.7,6,6c0,3.3-2.7,6-6,6c-3.3,0-6-2.7-6-6C305.1,866.9,307.8,864.2,311.1,864.2z"/>
			<path class="st4" d="M362.9,883.5c3.3,0,6,2.7,6,6c0,3.3-2.7,6-6,6c-3.3,0-6-2.7-6-6C357,886.2,359.6,883.5,362.9,883.5z"/>
			<path class="st4" d="M345.6,883.5c3.3,0,6,2.7,6,6c0,3.3-2.7,6-6,6c-3.3,0-6-2.7-6-6C339.7,886.2,342.4,883.5,345.6,883.5z"/>
			<path class="st4" d="M328.4,883.5c3.3,0,6,2.7,6,6c0,3.3-2.7,6-6,6c-3.3,0-6-2.7-6-6C322.4,886.2,325.1,883.5,328.4,883.5z"/>
			<path class="st4" d="M311.1,883.5c3.3,0,6,2.7,6,6c0,3.3-2.7,6-6,6c-3.3,0-6-2.7-6-6C305.1,886.2,307.8,883.5,311.1,883.5z"/>
			<path class="st4" d="M362.9,902.8c3.3,0,6,2.7,6,6c0,3.3-2.7,6-6,6c-3.3,0-6-2.7-6-6C357,905.5,359.6,902.8,362.9,902.8z"/>
			<path class="st4" d="M345.6,902.8c3.3,0,6,2.7,6,6c0,3.3-2.7,6-6,6c-3.3,0-6-2.7-6-6C339.7,905.5,342.4,902.8,345.6,902.8z"/>
			<path class="st4" d="M328.4,902.8c3.3,0,6,2.7,6,6c0,3.3-2.7,6-6,6c-3.3,0-6-2.7-6-6C322.4,905.5,325.1,902.8,328.4,902.8z"/>
			<path class="st4" d="M311.1,902.8c3.3,0,6,2.7,6,6c0,3.3-2.7,6-6,6c-3.3,0-6-2.7-6-6C305.1,905.5,307.8,902.8,311.1,902.8z"/>
			<path class="st4" d="M362.9,922.2c3.3,0,6,2.7,6,6c0,3.3-2.7,6-6,6c-3.3,0-6-2.7-6-6C357,924.8,359.6,922.2,362.9,922.2z"/>
			<path class="st4" d="M345.6,922.2c3.3,0,6,2.7,6,6c0,3.3-2.7,6-6,6c-3.3,0-6-2.7-6-6C339.7,924.8,342.4,922.2,345.6,922.2z"/>
			<path class="st4" d="M328.4,922.2c3.3,0,6,2.7,6,6c0,3.3-2.7,6-6,6c-3.3,0-6-2.7-6-6C322.4,924.8,325.1,922.2,328.4,922.2z"/>
			<path class="st4" d="M311.1,922.2c3.3,0,6,2.7,6,6c0,3.3-2.7,6-6,6c-3.3,0-6-2.7-6-6C305.1,924.8,307.8,922.2,311.1,922.2z"/>
			<path class="st4" d="M362.9,941.5c3.3,0,6,2.7,6,6c0,3.3-2.7,6-6,6c-3.3,0-6-2.7-6-6C357,944.1,359.6,941.5,362.9,941.5z"/>
			<path class="st4" d="M345.6,941.5c3.3,0,6,2.7,6,6c0,3.3-2.7,6-6,6c-3.3,0-6-2.7-6-6C339.7,944.1,342.4,941.5,345.6,941.5z"/>
			<path class="st4" d="M328.4,941.5c3.3,0,6,2.7,6,6c0,3.3-2.7,6-6,6c-3.3,0-6-2.7-6-6C322.4,944.1,325.1,941.5,328.4,941.5z"/>
			<path class="st4" d="M311.1,941.5c3.3,0,6,2.7,6,6c0,3.3-2.7,6-6,6c-3.3,0-6-2.7-6-6C305.1,944.1,307.8,941.5,311.1,941.5z"/>
		</g>
		<g>
			
				<rect x="400.4" y="812.6" transform="matrix(-1 -1.224647e-16 1.224647e-16 -1 814.8163 1685.3873)" class="st3" width="14" height="60.2"/>
			<g>
				
					<rect x="463.4" y="812.6" transform="matrix(-1 -1.224647e-16 1.224647e-16 -1 940.7523 1685.3873)" class="st3" width="14" height="60.2"/>
				
					<rect x="463.4" y="891.1" transform="matrix(-1 -1.224647e-16 1.224647e-16 -1 940.7523 1809.9066)" class="st3" width="14" height="27.8"/>
				
					<rect x="463.4" y="734.5" transform="matrix(-1 -1.224647e-16 1.224647e-16 -1 940.7523 1529.1707)" class="st3" width="14" height="60.2"/>
				
					<rect x="400.3" y="734.5" transform="matrix(-1 -1.224647e-16 1.224647e-16 -1 814.6592 1529.1707)" class="st3" width="14" height="60.2"/>
				
					<rect x="400.4" y="891.1" transform="matrix(-1 -1.224647e-16 1.224647e-16 -1 814.8163 1809.9066)" class="st3" width="14" height="27.8"/>
				
					<rect x="431.9" y="706.3" transform="matrix(-1 -1.224647e-16 1.224647e-16 -1 877.7833 1472.8861)" class="st3" width="14" height="60.2"/>
				
					<rect x="431.9" y="786" transform="matrix(-1 -1.224647e-16 1.224647e-16 -1 877.7833 1632.1505)" class="st3" width="14" height="60.2"/>
				
					<rect x="431.9" y="865.6" transform="matrix(-1 -1.224647e-16 1.224647e-16 -1 877.7833 1786.5759)" class="st3" width="14" height="55.4"/>
			</g>
		</g>
		<g>
			<g>
				<path class="st4" d="M400.3,956.8c1.8,0,3.2-1.5,3.2-3.2v-58.7h7.5v58.7c0,1.8,1.5,3.2,3.2,3.2c1.8,0,3.2-1.5,3.2-3.2v-61.9
					c0-1.8-1.5-3.2-3.2-3.2h-14c-1.8,0-3.2,1.5-3.2,3.2v61.9C397.1,955.4,398.5,956.8,400.3,956.8z"/>
			</g>
			<g>
				<path class="st4" d="M431.8,928.3c1.8,0,3.2-1.5,3.2-3.2v-58.7h7.5V925c0,1.8,1.5,3.2,3.2,3.2c1.8,0,3.2-1.5,3.2-3.2v-61.9
					c0-1.8-1.5-3.2-3.2-3.2h-14c-1.8,0-3.2,1.5-3.2,3.2V925C428.6,926.8,430.1,928.3,431.8,928.3z"/>
			</g>
			<g>
				<path class="st4" d="M463.4,956.8c1.8,0,3.2-1.5,3.2-3.2v-58.7h7.5v58.7c0,1.8,1.5,3.2,3.2,3.2c1.8,0,3.2-1.5,3.2-3.2v-61.9
					c0-1.8-1.5-3.2-3.2-3.2h-14c-1.8,0-3.2,1.5-3.2,3.2v61.9C460.1,955.4,461.6,956.8,463.4,956.8z"/>
			</g>
			<g>
				<path class="st4" d="M400.3,877.8c1.8,0,3.2-1.5,3.2-3.2v-58.7h7.5v58.7c0,1.8,1.5,3.2,3.2,3.2c1.8,0,3.2-1.5,3.2-3.2v-61.9
					c0-1.8-1.5-3.2-3.2-3.2h-14c-1.8,0-3.2,1.5-3.2,3.2v61.9C397.1,876.3,398.5,877.8,400.3,877.8z"/>
			</g>
			<g>
				<path class="st4" d="M431.8,849.3c1.8,0,3.2-1.5,3.2-3.2v-58.7h7.5V846c0,1.8,1.5,3.2,3.2,3.2c1.8,0,3.2-1.5,3.2-3.2v-61.9
					c0-1.8-1.5-3.2-3.2-3.2h-14c-1.8,0-3.2,1.5-3.2,3.2V846C428.6,847.8,430.1,849.3,431.8,849.3z"/>
			</g>
			<g>
				<path class="st4" d="M463.4,877.8c1.8,0,3.2-1.5,3.2-3.2v-58.7h7.5v58.7c0,1.8,1.5,3.2,3.2,3.2c1.8,0,3.2-1.5,3.2-3.2v-61.9
					c0-1.8-1.5-3.2-3.2-3.2h-14c-1.8,0-3.2,1.5-3.2,3.2v61.9C460.1,876.3,461.6,877.8,463.4,877.8z"/>
			</g>
			<g>
				<path class="st4" d="M400.3,798.8c1.8,0,3.2-1.5,3.2-3.2v-58.7h7.5v58.7c0,1.8,1.5,3.2,3.2,3.2c1.8,0,3.2-1.5,3.2-3.2v-61.9
					c0-1.8-1.5-3.2-3.2-3.2h-14c-1.8,0-3.2,1.5-3.2,3.2v61.9C397.1,797.3,398.5,798.8,400.3,798.8z"/>
			</g>
			<g>
				<path class="st4" d="M431.8,770.3c1.8,0,3.2-1.5,3.2-3.2v-57.9h7.5V767c0,1.8,1.5,3.2,3.2,3.2c1.8,0,3.2-1.5,3.2-3.2v-61.1
					c0-1.8-1.5-3.2-3.2-3.2h-14c-1.8,0-3.2,1.5-3.2,3.2V767C428.6,768.8,430.1,770.3,431.8,770.3z"/>
			</g>
			<g>
				<path class="st4" d="M463.4,798.8c1.8,0,3.2-1.5,3.2-3.2v-58.7h7.5v58.7c0,1.8,1.5,3.2,3.2,3.2c1.8,0,3.2-1.5,3.2-3.2v-61.9
					c0-1.8-1.5-3.2-3.2-3.2h-14c-1.8,0-3.2,1.5-3.2,3.2v61.9C460.1,797.3,461.6,798.8,463.4,798.8z"/>
			</g>
		</g>
		<g>
			<rect x="308.5" y="781.5" class="st3" width="60.4" height="16.2"/>
			<path class="st4" d="M368.8,801h-60.2c-1.8,0-3.3-1.5-3.3-3.3v-16c0-1.8,1.5-3.3,3.3-3.3h60.2c1.8,0,3.3,1.5,3.3,3.3v16
				C372.1,799.5,370.7,801,368.8,801z M311.8,794.5h53.9v-9.7h-53.9V794.5z"/>
		</g>
		<g>
			<polygon class="st3" points="378.7,707.3 498.8,707.3 493.4,683.1 384.2,683.1 			"/>
			<path class="st4" d="M498.8,710.6H378.7c-1,0-1.9-0.4-2.5-1.2c-0.6-0.8-0.8-1.8-0.6-2.7l5.5-24.2c0.3-1.5,1.6-2.5,3.2-2.5h109.2
				c1.5,0,2.8,1.1,3.2,2.5l5.5,24.2c0.2,1,0,2-0.6,2.7C500.8,710.1,499.8,710.6,498.8,710.6z M382.8,704.1h112l-4-17.7h-104
				L382.8,704.1z"/>
		</g>
		<g>
			<path class="st4" d="M1163.6,801.3h33.7c12.7,0,23.1-10.3,23.1-23.1c0-12.7-10.3-23.1-23.1-23.1H1091c-1.8,0-3.2,1.5-3.2,3.2
				c0,1.8,1.5,3.2,3.2,3.2h106.2c9.1,0,16.6,7.4,16.6,16.6c0,9.1-7.4,16.6-16.6,16.6h-33.7c-1.8,0-3.2,1.5-3.2,3.2
				C1160.4,799.9,1161.8,801.3,1163.6,801.3z"/>
		</g>
		<path class="st4" d="M1392.8,778.3c0,2.2,1.8,4,4,4c2.2,0,4-1.8,4-4c0-2.2-1.8-4-4-4C1394.6,774.2,1392.8,776,1392.8,778.3z"/>
		<path class="st4" d="M1377.8,778.3c0,2.2,1.8,4,4,4c2.2,0,4-1.8,4-4c0-2.2-1.8-4-4-4C1379.6,774.2,1377.8,776,1377.8,778.3z"/>
		<path class="st4" d="M1362.8,778.3c0,2.2,1.8,4,4,4c2.2,0,4-1.8,4-4c0-2.2-1.8-4-4-4C1364.6,774.2,1362.8,776,1362.8,778.3z"/>
		<path class="st4" d="M1347.8,778.3c0,2.2,1.8,4,4,4c2.2,0,4-1.8,4-4c0-2.2-1.8-4-4-4C1349.6,774.2,1347.8,776,1347.8,778.3z"/>
		<path class="st4" d="M1332.7,778.3c0,2.2,1.8,4,4,4s4-1.8,4-4c0-2.2-1.8-4-4-4S1332.7,776,1332.7,778.3z"/>
		<path class="st4" d="M1317.7,778.3c0,2.2,1.8,4,4,4c2.2,0,4-1.8,4-4c0-2.2-1.8-4-4-4C1319.5,774.2,1317.7,776,1317.7,778.3z"/>
		<path class="st4" d="M1302.7,778.3c0,2.2,1.8,4,4,4c2.2,0,4-1.8,4-4c0-2.2-1.8-4-4-4C1304.5,774.2,1302.7,776,1302.7,778.3z"/>
		<path class="st4" d="M1287.7,778.3c0,2.2,1.8,4,4,4c2.2,0,4-1.8,4-4c0-2.2-1.8-4-4-4C1289.5,774.2,1287.7,776,1287.7,778.3z"/>
		<path class="st4" d="M1272.6,778.3c0,2.2,1.8,4,4,4c2.2,0,4-1.8,4-4c0-2.2-1.8-4-4-4C1274.4,774.2,1272.6,776,1272.6,778.3z"/>
		<g>
			<path class="st4" d="M326.4,709.1c0,2.2,1.8,4,4,4c2.2,0,4-1.8,4-4c0-2.2-1.8-4-4-4C328.2,705,326.4,706.8,326.4,709.1z"/>
			<path class="st4" d="M311.3,709.1c0,2.2,1.8,4,4,4c2.2,0,4-1.8,4-4c0-2.2-1.8-4-4-4C313.1,705,311.3,706.8,311.3,709.1z"/>
			<path class="st4" d="M296.3,709.1c0,2.2,1.8,4,4,4c2.2,0,4-1.8,4-4c0-2.2-1.8-4-4-4C298.1,705,296.3,706.8,296.3,709.1z"/>
			<path class="st4" d="M281.3,709.1c0,2.2,1.8,4,4,4c2.2,0,4-1.8,4-4c0-2.2-1.8-4-4-4C283.1,705,281.3,706.8,281.3,709.1z"/>
			<path class="st4" d="M266.2,709.1c0,2.2,1.8,4,4,4c2.2,0,4-1.8,4-4c0-2.2-1.8-4-4-4C268.1,705,266.2,706.8,266.2,709.1z"/>
			<path class="st4" d="M251.2,709.1c0,2.2,1.8,4,4,4c2.2,0,4-1.8,4-4c0-2.2-1.8-4-4-4C253,705,251.2,706.8,251.2,709.1z"/>
			<path class="st4" d="M236.2,709.1c0,2.2,1.8,4,4,4c2.2,0,4-1.8,4-4c0-2.2-1.8-4-4-4C238,705,236.2,706.8,236.2,709.1z"/>
			<path class="st4" d="M221.2,709.1c0,2.2,1.8,4,4,4c2.2,0,4-1.8,4-4c0-2.2-1.8-4-4-4C223,705,221.2,706.8,221.2,709.1z"/>
			<path class="st4" d="M206.1,709.1c0,2.2,1.8,4,4,4c2.2,0,4-1.8,4-4c0-2.2-1.8-4-4-4C207.9,705,206.1,706.8,206.1,709.1z"/>
		</g>
		<g>
			<path class="st4" d="M1171.5,695.2c0,2.2,1.8,4,4,4s4-1.8,4-4c0-2.2-1.8-4-4-4S1171.5,693,1171.5,695.2z"/>
			<path class="st4" d="M1156.4,695.2c0,2.2,1.8,4,4,4c2.2,0,4-1.8,4-4c0-2.2-1.8-4-4-4C1158.3,691.2,1156.4,693,1156.4,695.2z"/>
			<path class="st4" d="M1141.4,695.2c0,2.2,1.8,4,4,4c2.2,0,4-1.8,4-4c0-2.2-1.8-4-4-4C1143.2,691.2,1141.4,693,1141.4,695.2z"/>
			<path class="st4" d="M1126.4,695.2c0,2.2,1.8,4,4,4c2.2,0,4-1.8,4-4c0-2.2-1.8-4-4-4C1128.2,691.2,1126.4,693,1126.4,695.2z"/>
			<path class="st4" d="M1111.4,695.2c0,2.2,1.8,4,4,4c2.2,0,4-1.8,4-4c0-2.2-1.8-4-4-4C1113.2,691.2,1111.4,693,1111.4,695.2z"/>
			<path class="st4" d="M1096.3,695.2c0,2.2,1.8,4,4,4s4-1.8,4-4c0-2.2-1.8-4-4-4S1096.3,693,1096.3,695.2z"/>
			<path class="st4" d="M1081.3,695.2c0,2.2,1.8,4,4,4c2.2,0,4-1.8,4-4c0-2.2-1.8-4-4-4C1083.1,691.2,1081.3,693,1081.3,695.2z"/>
			<path class="st4" d="M1066.3,695.2c0,2.2,1.8,4,4,4c2.2,0,4-1.8,4-4c0-2.2-1.8-4-4-4C1068.1,691.2,1066.3,693,1066.3,695.2z"/>
			<path class="st4" d="M1051.3,695.2c0,2.2,1.8,4,4,4c2.2,0,4-1.8,4-4c0-2.2-1.8-4-4-4C1053.1,691.2,1051.3,693,1051.3,695.2z"/>
		</g>
		<g>
			<path class="st4" d="M287,750.1h58.6c1.8,0,3.2-1.5,3.2-3.2c0-1.8-1.5-3.2-3.2-3.2H287c-1.8,0-3.2,1.5-3.2,3.2
				C283.8,748.6,285.2,750.1,287,750.1z"/>
		</g>
		<g>
			<path class="st4" d="M1049.9,644.8h58.6c1.8,0,3.2-1.5,3.2-3.2c0-1.8-1.5-3.2-3.2-3.2h-58.6c-1.8,0-3.2,1.5-3.2,3.2
				C1046.7,643.4,1048.1,644.8,1049.9,644.8z"/>
		</g>
		<g>
			<path class="st4" d="M92.8,798.8h74.8c1.8,0,3.2-1.5,3.2-3.2c0-1.8-1.5-3.2-3.2-3.2H92.8c-1.8,0-3.2,1.5-3.2,3.2
				C89.5,797.3,91,798.8,92.8,798.8z"/>
		</g>
		<g>
			<path class="st4" d="M1251.5,702.4h74.8c1.8,0,3.2-1.5,3.2-3.2c0-1.8-1.5-3.2-3.2-3.2h-74.8c-1.8,0-3.2,1.5-3.2,3.2
				C1248.2,700.9,1249.7,702.4,1251.5,702.4z"/>
		</g>
		<g>
			<path class="st4" d="M272.5,644.7h77.6c1.8,0,3.2-1.5,3.2-3.2c0-1.8-1.5-3.2-3.2-3.2h-77.6c-1.8,0-3.2,1.5-3.2,3.2
				C269.3,643.2,270.7,644.7,272.5,644.7z"/>
		</g>
		<g>
			<path class="st4" d="M817.8,651.9h77.6c1.8,0,3.2-1.5,3.2-3.2c0-1.8-1.5-3.2-3.2-3.2h-77.6c-1.8,0-3.2,1.5-3.2,3.2
				C814.6,650.5,816,651.9,817.8,651.9z"/>
		</g>
		<g>
			<path class="st4" d="M62,660.5h49.3c1.8,0,3.2-1.5,3.2-3.2c0-1.8-1.5-3.2-3.2-3.2H62c-1.8,0-3.2,1.5-3.2,3.2
				C58.7,659,60.2,660.5,62,660.5z"/>
		</g>
		<g>
			<rect x="384.2" y="708.3" class="st3" width="109.2" height="11.7"/>
			<path class="st4" d="M493.3,723.2h-109c-1.8,0-3.3-1.5-3.3-3.3v-11.5c0-1.8,1.5-3.3,3.3-3.3h109c1.8,0,3.3,1.5,3.3,3.3v11.5
				C496.6,721.7,495.1,723.2,493.3,723.2z M387.4,716.7h102.7v-5.2H387.4V716.7z"/>
		</g>
		<g>
			<rect x="285.3" y="797.7" class="st3" width="97.7" height="15.5"/>
			<path class="st4" d="M382.9,816.4h-97.5c-1.8,0-3.3-1.5-3.3-3.3v-15.3c0-1.8,1.5-3.3,3.3-3.3h97.5c1.8,0,3.3,1.5,3.3,3.3v15.3
				C386.2,814.9,384.7,816.4,382.9,816.4z M288.6,809.9h91.2v-9h-91.2V809.9z"/>
		</g>
		<g>
			
				<rect x="1336.2" y="932.7" transform="matrix(-1 -1.224647e-16 1.224647e-16 -1 2738.3108 1891.3748)" class="st3" width="65.8" height="26"/>
			
				<rect x="1432.4" y="958.7" transform="matrix(-1 -1.224647e-16 1.224647e-16 -1 2876.7798 1932.189)" class="st3" width="11.9" height="14.8"/>
			<g>
				<g>
					<path class="st4" d="M1330,962.8h79c1.9,0,3.4-1.5,3.4-3.4c0-1.9-1.5-3.4-3.4-3.4h-79c-1.9,0-3.4,1.5-3.4,3.4
						C1326.6,961.2,1328.2,962.8,1330,962.8z"/>
				</g>
				<g>
					<path class="st4" d="M1337.2,949.8h64.7c1.9,0,3.4-1.5,3.4-3.4c0-1.9-1.5-3.4-3.4-3.4h-64.7c-1.9,0-3.4,1.5-3.4,3.4
						C1333.8,948.3,1335.3,949.8,1337.2,949.8z"/>
				</g>
				<g>
					<path class="st4" d="M1337.2,937.4h64.7c1.9,0,3.4-1.5,3.4-3.4c0-1.9-1.5-3.4-3.4-3.4h-64.7c-1.9,0-3.4,1.5-3.4,3.4
						C1333.8,935.8,1335.3,937.4,1337.2,937.4z"/>
				</g>
				<g>
					<path class="st4" d="M1393.4,978.1h7.1c1.9,0,3.4-1.5,3.4-3.4c0-1.9-1.5-3.4-3.4-3.4h-3.7v-9.8c0-1.9-1.5-3.4-3.4-3.4
						c-1.9,0-3.4,1.5-3.4,3.4v13.2C1390,976.6,1391.5,978.1,1393.4,978.1z"/>
				</g>
				<g>
					<path class="st4" d="M1336.6,978.1h5.8c1.9,0,3.4-1.5,3.4-3.4v-13.2c0-1.9-1.5-3.4-3.4-3.4c-1.9,0-3.4,1.5-3.4,3.4v9.8h-2.4
						c-1.9,0-3.4,1.5-3.4,3.4C1333.2,976.6,1334.7,978.1,1336.6,978.1z"/>
				</g>
				<path class="st4" d="M1442.7,977.5h-10.1c-1.6,0-3-1.1-3.3-2.7l-3.2-15.4c-0.2-1,0.1-2,0.7-2.8s1.6-1.2,2.6-1.2h16.1
					c1,0,2,0.4,2.6,1.2c0.6,0.8,0.9,1.8,0.7,2.8l-2.8,15.4C1445.7,976.4,1444.3,977.5,1442.7,977.5z M1435.3,970.8h4.5l1.6-8.7h-7.9
					L1435.3,970.8z"/>
				<path class="st4" d="M1409,934c0,1.8,1.5,3.3,3.3,3.3s3.3-1.5,3.3-3.3c0-1.8-1.5-3.3-3.3-3.3S1409,932.1,1409,934z"/>
				<path class="st4" d="M1323.2,946c0,1.8,1.5,3.3,3.3,3.3s3.3-1.5,3.3-3.3s-1.5-3.3-3.3-3.3S1323.2,944.2,1323.2,946z"/>
			</g>
		</g>
		<g>
			<rect x="937.8" y="900.4" class="st3" width="176.7" height="71.1"/>
			<path class="st4" d="M1114.4,974.8H937.9c-1.8,0-3.3-1.5-3.3-3.3v-71c0-1.8,1.5-3.3,3.3-3.3h176.6c1.8,0,3.3,1.5,3.3,3.3v71
				C1117.7,973.3,1116.3,974.8,1114.4,974.8z M941,968.3h170.2v-64.6H941V968.3z"/>
		</g>
		<rect x="954.4" y="921.2" class="st3" width="24.9" height="24.9"/>
		<rect x="995.9" y="921" class="st3" width="20.6" height="25.6"/>
		<rect x="1036.8" y="921.2" class="st3" width="20.7" height="22.8"/>
		<rect x="1073.8" y="921.2" class="st3" width="22.8" height="22.8"/>
		<g>
			<rect x="1074.2" y="921.2" class="st3" width="22.4" height="25.5"/>
			<path class="st4" d="M1096.5,949.9h-22.3c-1.8,0-3.3-1.5-3.3-3.3v-25.3c0-1.8,1.5-3.3,3.3-3.3h22.3c1.8,0,3.3,1.5,3.3,3.3v25.3
				C1099.9,948.4,1098.4,949.9,1096.5,949.9z M1077.4,943.4h15.9v-19h-15.9V943.4z"/>
		</g>
		<g>
			<rect x="1035.1" y="921.2" class="st3" width="22.4" height="25.5"/>
			<path class="st4" d="M1057.4,949.9h-22.3c-1.8,0-3.3-1.5-3.3-3.3v-25.3c0-1.8,1.5-3.3,3.3-3.3h22.3c1.8,0,3.3,1.5,3.3,3.3v25.3
				C1060.7,948.4,1059.2,949.9,1057.4,949.9z M1038.3,943.4h15.9v-19h-15.9V943.4z"/>
		</g>
		<path class="st4" d="M1018.4,949.9h-22.4c-1.8,0-3.2-1.5-3.2-3.2v-25.5c0-1.8,1.5-3.2,3.2-3.2h22.4c1.8,0,3.2,1.5,3.2,3.2v25.5
			C1021.6,948.4,1020.2,949.9,1018.4,949.9z M999.2,943.4h15.9v-19h-15.9V943.4z"/>
		<path class="st4" d="M979.2,949.9h-22.4c-1.8,0-3.2-1.5-3.2-3.2v-25.5c0-1.8,1.5-3.2,3.2-3.2h22.4c1.8,0,3.2,1.5,3.2,3.2v25.5
			C982.5,948.4,981,949.9,979.2,949.9z M960,943.4H976v-19H960V943.4z"/>
		<g>
			<rect x="937.8" y="829.3" class="st3" width="176.7" height="71.1"/>
			<path class="st4" d="M1114.4,903.7H937.9c-1.8,0-3.3-1.5-3.3-3.3v-71c0-1.8,1.5-3.3,3.3-3.3h176.6c1.8,0,3.3,1.5,3.3,3.3v71
				C1117.7,902.2,1116.3,903.7,1114.4,903.7z M941,897.2h170.2v-64.6H941V897.2z"/>
		</g>
		<g>
			<rect x="937.8" y="891.1" class="st3" width="176.7" height="9.4"/>
			<path class="st4" d="M1114.4,903.7H937.9c-1.8,0-3.3-1.5-3.3-3.3v-9.2c0-1.8,1.5-3.3,3.3-3.3h176.6c1.8,0,3.3,1.5,3.3,3.3v9.2
				C1117.7,902.2,1116.3,903.7,1114.4,903.7z M941,897.2h170.2v-2.9H941V897.2z"/>
		</g>
		<rect x="991" y="781.5" class="st3" width="69.7" height="14.1"/>
		<path class="st4" d="M1061.8,801h-71.3c-1.8,0-3.2-1.5-3.2-3.2v-16.2c0-1.8,1.5-3.2,3.2-3.2h71.3c1.8,0,3.2,1.5,3.2,3.2v16.2
			C1065,799.5,1063.6,801,1061.8,801z M993.7,794.5h64.8v-9.7h-64.8V794.5z"/>
		<rect x="1074.2" y="850" class="st3" width="22.4" height="25.5"/>
		<rect x="1036.8" y="852" class="st3" width="20.7" height="22.4"/>
		<rect x="995.9" y="850.9" class="st3" width="20.6" height="24.6"/>
		<rect x="956.9" y="850" class="st3" width="20.5" height="24.3"/>
		<g>
			<polygon class="st3" points="932.3,829.3 1120,829.3 1114.5,797.7 937.8,797.7 			"/>
			<path class="st4" d="M1120,832.6H932.3c-1,0-1.9-0.4-2.5-1.2c-0.6-0.7-0.9-1.7-0.7-2.6l5.5-31.6c0.3-1.6,1.6-2.7,3.2-2.7h176.7
				c1.6,0,2.9,1.1,3.2,2.7l5.5,31.6c0.2,0.9-0.1,1.9-0.7,2.6C1121.8,832.1,1120.9,832.6,1120,832.6z M936.2,826.1h180l-4.3-25.1
				H940.5L936.2,826.1z"/>
		</g>
		<path class="st4" d="M1096.6,878.7h-22.4c-1.8,0-3.2-1.5-3.2-3.2V850c0-1.8,1.5-3.2,3.2-3.2h22.4c1.8,0,3.2,1.5,3.2,3.2v25.5
			C1099.9,877.3,1098.4,878.7,1096.6,878.7z M1077.4,872.2h15.9v-19h-15.9V872.2z"/>
		<path class="st4" d="M1057.5,878.7h-22.4c-1.8,0-3.2-1.5-3.2-3.2V850c0-1.8,1.5-3.2,3.2-3.2h22.4c1.8,0,3.2,1.5,3.2,3.2v25.5
			C1060.7,877.3,1059.3,878.7,1057.5,878.7z M1038.3,872.2h15.9v-19h-15.9V872.2z"/>
		<path class="st4" d="M1018.4,878.7h-22.4c-1.8,0-3.2-1.5-3.2-3.2V850c0-1.8,1.5-3.2,3.2-3.2h22.4c1.8,0,3.2,1.5,3.2,3.2v25.5
			C1021.6,877.3,1020.2,878.7,1018.4,878.7z M999.2,872.2h15.9v-19h-15.9V872.2z"/>
		<g>
			<rect x="956.8" y="850" class="st3" width="22.4" height="25.5"/>
			<path class="st4" d="M979.1,878.7h-22.3c-1.8,0-3.3-1.5-3.3-3.3v-25.3c0-1.8,1.5-3.3,3.3-3.3h22.3c1.8,0,3.3,1.5,3.3,3.3v25.3
				C982.5,877.2,981,878.7,979.1,878.7z M960,872.2H976v-19H960V872.2z"/>
		</g>
		<g>
			
				<rect x="531.8" y="666.2" transform="matrix(-1 -1.224647e-16 1.224647e-16 -1 1222.8702 1350.0206)" class="st3" width="159.2" height="17.5"/>
			<path class="st4" d="M691,690.1H531.8c-1.8,0-3.2-1.5-3.2-3.2v-20.6c0-1.8,1.5-3.2,3.2-3.2H691c1.8,0,3.2,1.5,3.2,3.2v20.6
				C694.3,688.7,692.8,690.1,691,690.1z M535.1,683.6h152.7v-14.2H535.1V683.6z"/>
		</g>
		<g>
			<rect x="372.3" y="920.4" class="st3" width="132.9" height="50.8"/>
			<path class="st4" d="M505.1,974.5H372.4c-1.8,0-3.3-1.5-3.3-3.3v-50.6c0-1.8,1.5-3.3,3.3-3.3h132.7c1.8,0,3.3,1.5,3.3,3.3v50.6
				C508.5,973,507,974.5,505.1,974.5z M375.6,968H502v-44.3H375.6V968z"/>
		</g>
		<g>
			<rect x="438.8" y="946.1" class="st3" width="38.5" height="25.3"/>
			<path class="st4" d="M477.2,974.6h-38.3c-1.8,0-3.3-1.5-3.3-3.3v-25.1c0-1.8,1.5-3.3,3.3-3.3h38.3c1.8,0,3.3,1.5,3.3,3.3v25.1
				C480.5,973.1,479,974.6,477.2,974.6z M442,968.1h32v-18.8h-32V968.1z"/>
		</g>
		<g>
			<rect x="400.4" y="946.1" class="st3" width="38.5" height="25.3"/>
			<path class="st4" d="M438.8,974.6h-38.3c-1.8,0-3.3-1.5-3.3-3.3v-25.1c0-1.8,1.5-3.3,3.3-3.3h38.3c1.8,0,3.3,1.5,3.3,3.3v25.1
				C442.1,973.1,440.6,974.6,438.8,974.6z M403.6,968.1h32v-18.8h-32V968.1z"/>
		</g>
		<g>
			<rect x="797.1" y="920.4" class="st3" width="138.1" height="50.8"/>
			<path class="st4" d="M935.1,974.5H797.2c-1.8,0-3.3-1.5-3.3-3.3v-50.6c0-1.8,1.5-3.3,3.3-3.3h137.9c1.8,0,3.3,1.5,3.3,3.3v50.6
				C938.5,973,937,974.5,935.1,974.5z M800.4,968H932v-44.3H800.4V968z"/>
		</g>
		<g>
			<rect x="866.2" y="946.1" class="st3" width="40" height="25.3"/>
			<path class="st4" d="M906.1,974.6h-39.8c-1.8,0-3.3-1.5-3.3-3.3v-25.1c0-1.8,1.5-3.3,3.3-3.3h39.8c1.8,0,3.3,1.5,3.3,3.3v25.1
				C909.4,973.1,907.9,974.6,906.1,974.6z M869.4,968.1h33.5v-18.8h-33.5V968.1z"/>
		</g>
		<g>
			<rect x="826.3" y="946.1" class="st3" width="40" height="25.3"/>
			<path class="st4" d="M866.2,974.6h-39.8c-1.8,0-3.3-1.5-3.3-3.3v-25.1c0-1.8,1.5-3.3,3.3-3.3h39.8c1.8,0,3.3,1.5,3.3,3.3v25.1
				C869.5,973.1,868,974.6,866.2,974.6z M829.5,968.1H863v-18.8h-33.5V968.1z"/>
		</g>
		<g>
			<path class="st4" d="M1689.7,959.8c0,2-1.6,3.6-3.6,3.6c-2,0-3.6-1.6-3.6-3.6c0-2,1.6-3.6,3.6-3.6
				C1688.1,956.2,1689.7,957.8,1689.7,959.8z"/>
			<g>
				<path class="st4" d="M1664.9,969.5c-1.8,0-3.3-1.5-3.3-3.3V954c0-2.6-1-5-2.8-6.8l-2.7-2.7c-3.2-3.2-3.2-8.4,0-11.7l2.6-2.6
					c3.2-3.2,8.4-3.2,11.7,0l2.5,2.5c1.8,1.8,4.2,2.8,6.8,2.8h2.8c1.8,0,3.3,1.5,3.3,3.3s-1.5,3.3-3.3,3.3h-2.8
					c-4.3,0-8.4-1.7-11.5-4.8l-2.5-2.5c-0.4-0.4-0.9-0.5-1.1-0.5c-0.2,0-0.7,0.1-1.1,0.5l-2.6,2.6c-0.6,0.6-0.6,1.7,0,2.3l2.7,2.7
					c3.1,3.1,4.8,7.2,4.8,11.5v12.1C1668.2,968,1666.7,969.5,1664.9,969.5z"/>
			</g>
			<circle class="st4" cx="1675.8" cy="922.1" r="6.4"/>
			<path class="st4" d="M1642.7,975.3c-8.5,0-15.5-6.9-15.5-15.5s6.9-15.5,15.5-15.5c8.5,0,15.5,6.9,15.5,15.5
				S1651.3,975.3,1642.7,975.3z M1642.7,951c-4.9,0-8.8,4-8.8,8.8s4,8.8,8.8,8.8c4.9,0,8.8-4,8.8-8.8S1647.6,951,1642.7,951z"/>
			<path class="st4" d="M1686.4,975.3c-8.5,0-15.5-6.9-15.5-15.5s6.9-15.5,15.5-15.5c8.5,0,15.5,6.9,15.5,15.5
				S1695,975.3,1686.4,975.3z M1686.4,951c-4.9,0-8.8,4-8.8,8.8s4,8.8,8.8,8.8c4.9,0,8.8-4,8.8-8.8S1691.3,951,1686.4,951z"/>
		</g>
		<g>
			<polygon class="st3" points="768,697.8 748.6,723.1 1061.5,723.1 1046.2,697.8 			"/>
			<path class="st4" d="M1061.5,726.9H748.6c-1.5,0-2.8-0.8-3.5-2.2c-0.7-1.3-0.5-2.9,0.4-4.1l19.5-25.3c0.7-1,1.9-1.5,3.1-1.5
				h278.2c1.4,0,2.6,0.7,3.3,1.9l15.3,25.3c0.7,1.2,0.7,2.7,0.1,3.9C1064.2,726.2,1062.9,726.9,1061.5,726.9z M756.4,719.2h298.2
				l-10.6-17.5H769.9L756.4,719.2z"/>
		</g>
		<g>
			<path class="st4" d="M1582.1,723.4c-8.1-5.5-16.4-6.5-16.7-6.5c0,0,0,0,0,0c-6.9-4.5-13.6-5.1-15.5-5.2c0,0-0.1,0-0.1,0
				c0,0,0,0,0,0c0,0-0.1,0-0.1,0c-0.1,0-0.1,0-0.1,0c0,0,0,0,0,0c0,0-0.1,0-0.1,0c-1.8,0.1-8.6,0.7-15.5,5.2c0,0,0,0,0,0
				c-0.3,0-8.6,1-16.7,6.5c-7.6,5.2-16.5,15.4-15.9,34.6c0.5,15.5,11,30.7,30.5,43.8c0.6,0.4,1.2,0.6,1.9,0.6c0.4,0,0.7-0.1,1.1-0.2
				c5-1.7,10.3-2.6,15.6-2.5c4.9,0.1,9.8,0.9,14.5,2.5c0.9,0.3,1.9,0.2,2.7-0.2c3.3-1.8,11.8-7.2,20.5-18.3
				c6.5-8.2,9.9-16.9,10.2-25.6C1598.6,738.8,1589.6,728.6,1582.1,723.4z M1553,793.2v-74.4c6.4,1.4,19.2,6.8,20.6,27.3
				c1.4,21-12.8,40-19.1,47.2C1554,793.3,1553.5,793.2,1553,793.2z M1544.6,793.3c-6.3-7.2-20.5-26.2-19.1-47.2
				c1.4-20.8,14.6-26,20.9-27.3v74.4C1545.8,793.2,1545.2,793.3,1544.6,793.3z M1533.9,795.4c-12-8.3-25.7-21.4-26.2-37.6
				c-0.5-18.5,8.8-27.2,16.7-31.1c-2.8,4.6-5,10.7-5.5,18.9c-1.4,20.9,10.7,39.6,18.2,49C1536,794.8,1534.9,795.1,1533.9,795.4z
				 M1591.4,757.9c-0.2,7.3-3.2,14.6-8.7,21.7c-7,8.9-13.8,13.8-17.3,15.9c-1.1-0.3-2.2-0.6-3.3-0.9c7.5-9.4,19.6-28.1,18.2-49
				c-0.5-8.1-2.7-14.2-5.5-18.8c1.2,0.6,2.4,1.3,3.6,2.1C1587.4,735,1591.8,744.8,1591.4,757.9z"/>
			<path class="st4" d="M1559.2,805.4c-3-1.1-6.1-1.7-9.3-1.7c-3.4,0-6.8,0.5-10,1.7c-1.3,0.5-2.2,1.7-2.2,3.1v10.3
				c0,5.5,4.5,10,10,10h3.7c5.5,0,10-4.5,10-10v-10.3C1561.4,807.1,1560.5,805.9,1559.2,805.4z M1554.8,818.8c0,1.9-1.5,3.4-3.4,3.4
				h-3.7c-1.9,0-3.4-1.5-3.4-3.4v-7.9c1.8-0.4,3.6-0.7,5.5-0.6c1.7,0,3.3,0.2,4.9,0.6V818.8z"/>
		</g>
		<path class="st4" d="M1256,983.1h-9.5H69.9c0,0,0,0,0,0c-2.1,0-4-0.8-5.5-2.3c-1.6-1.5-2.4-3.6-2.4-5.8c0-0.9-0.4-1.8-1-2.4
			c-0.6-0.6-1.5-1-2.4-1h-0.5c-0.9,0-1.8,0.4-2.4,1c-0.6,0.6-1,1.5-1,2.4c0,2.2-0.9,4.2-2.4,5.8c-1.5,1.5-3.5,2.3-5.5,2.3
			c0,0-0.1,0-0.1,0c-0.2,0-0.3,0-0.5,0.1c-0.2,0-0.5-0.1-0.7-0.1c-2.1,0-4-0.8-5.5-2.3c-1.6-1.5-2.4-3.6-2.4-5.8
			c0-0.9-0.4-1.8-1-2.4c-0.6-0.6-1.5-1-2.4-1h-0.5c-0.9,0-1.8,0.4-2.4,1c-0.6,0.6-1,1.5-1,2.4c0,2.2-0.9,4.2-2.4,5.8
			c-1.5,1.5-3.5,2.3-5.5,2.3c0,0-0.1,0-0.1,0c-0.2,0-0.3,0-0.5,0.1c-0.2,0-0.4-0.1-0.7-0.1c-2.1,0-4-0.8-5.5-2.3
			c-1.6-1.5-2.4-3.6-2.4-5.8c0-0.9-0.4-1.8-1-2.4c-0.6-0.6-1.5-1-2.4-1H9.1c-0.9,0-1.8,0.4-2.4,1c-0.6,0.6-1,1.5-1,2.4
			c0,2.2-0.9,4.2-2.4,5.8c-0.9,0.9-1.9,1.5-3,1.9v7c2.9-0.5,5.6-1.9,7.8-4c0.5-0.5,0.9-1,1.3-1.5c0.4,0.5,0.8,1,1.3,1.5
			c2.8,2.7,6.6,4.3,10.4,4.2c0.2,0,0.3,0,0.5-0.1c0.2,0,0.3,0.1,0.5,0.1c0.1,0,0.2,0,0.3,0c3.7,0,7.4-1.5,10.1-4.2
			c0.5-0.5,0.9-1,1.3-1.5c0.4,0.5,0.8,1,1.3,1.5c2.8,2.7,6.6,4.2,10.4,4.2c0.2,0,0.3,0,0.5-0.1c0.2,0,0.3,0.1,0.5,0.1
			c0.1,0,0.2,0,0.3,0c3.7,0,7.4-1.5,10.1-4.2c0.5-0.5,0.9-1,1.3-1.5c0.4,0.5,0.8,1,1.3,1.5c2,1.9,4.4,3.2,7,3.8
			c0.4,0.2,0.9,0.4,1.5,0.4H1256l0,0h545.3v-6.8H1256z"/>
		<path class="st4" d="M1509.1,888.2c-0.4,0-0.8-0.1-1.2-0.2c-6.6-2.7-13.1-3.7-19.2-3c-1.8,0.2-3.5-1.1-3.7-2.9
			c-0.2-1.8,1.1-3.5,2.9-3.7c7.2-0.8,14.8,0.4,22.4,3.5c1.7,0.7,2.5,2.6,1.8,4.3C1511.7,887.4,1510.4,888.2,1509.1,888.2z
			 M1571.9,888c6.6-2.7,13.1-3.7,19.2-3c1.8,0.2,3.5-1.1,3.7-2.9c0.2-1.8-1.1-3.5-2.9-3.7c-7.2-0.8-14.8,0.4-22.4,3.5
			c-1.7,0.7-2.5,2.6-1.8,4.3c0.5,1.3,1.8,2.1,3.1,2.1C1571.1,888.2,1571.5,888.1,1571.9,888z M1484.7,866.7c-2,0-3.6,1.6-3.6,3.6
			c0,2,1.6,3.6,3.6,3.6c2,0,3.6-1.6,3.6-3.6C1488.3,868.4,1486.7,866.7,1484.7,866.7z"/>
		<g class="st6">
			<polygon class="st4" points="612.6,870.2 621.2,870.2 621.2,972.4 602.3,972.4 602.3,906.6 			"/>
		</g>
		<g class="st6">
			<rect x="924.7" y="830.6" class="st4" width="13.1" height="141.8"/>
		</g>
		<g class="st6">
			<rect x="529.8" y="829.5" class="st4" width="16.3" height="126.5"/>
		</g>
		<g class="st6">
			<rect x="368.9" y="795.6" class="st4" width="14.1" height="176.8"/>
		</g>
		<g class="st6">
			<rect x="521" y="648.7" class="st4" width="24" height="177"/>
		</g>
	</g>
</g>
</svg>
